<?xml version="1.0" standalone="no"?>
<!DOCTYPE svg PUBLIC "-//W3C//DTD SVG 1.1//EN" "http://www.w3.org/Graphics/SVG/1.1/DTD/svg11.dtd" >
<!--
2013-9-30: Created.
-->
<svg>
<metadata>
Created by iconfont
</metadata>
<defs>

<font id="iconfont" horiz-adv-x="1024" >
  <font-face
    font-family="iconfont"
    font-weight="500"
    font-stretch="normal"
    units-per-em="1024"
    ascent="896"
    descent="-128"
  />
    <missing-glyph />
    
    <glyph glyph-name="74" unicode="&#58983;" d="M584.971 300c0-23.424-18.979-42.43-42.402-42.43-23.425 0-42.402 19.006-42.402 42.43 0 23.425 18.978 42.402 42.402 42.402C565.992 342.402 584.971 323.425 584.971 300zM542.568 401.776c56.202 0 101.804 45.602 101.804 101.804s-45.602 101.804-101.804 101.804c-56.229 0-101.776-45.602-101.776-101.804S486.339 401.776 542.568 401.776zM542.568 577.621c40.83 0 74.041-33.211 74.041-74.041s-33.211-74.042-74.041-74.042c-40.803 0-74.014 33.212-74.014 74.042S501.766 577.621 542.568 577.621zM542.568 198.196c-56.229 0-101.776-45.574-101.776-101.804 0-56.201 45.547-101.776 101.776-101.776 56.202 0 101.804 45.575 101.804 101.776C644.372 152.622 598.771 198.196 542.568 198.196zM542.568 22.379c-40.803 0-74.014 33.212-74.014 74.014 0 40.83 33.211 74.042 74.014 74.042 40.83 0 74.041-33.212 74.041-74.042C616.609 55.591 583.398 22.379 542.568 22.379zM746.175 401.776c-56.229 0-101.803-45.574-101.803-101.776s45.574-101.804 101.803-101.804c56.229 0 101.776 45.602 101.776 101.804S802.404 401.776 746.175 401.776zM746.175 225.959c-40.829 0-74.041 33.211-74.041 74.041 0 40.803 33.212 74.015 74.041 74.015 40.803 0 74.015-33.212 74.015-74.015C820.189 259.17 786.978 225.959 746.175 225.959zM338.988 401.776c-56.202 0-101.803-45.574-101.803-101.776s45.601-101.804 101.803-101.804c56.229 0 101.804 45.602 101.804 101.804S395.218 401.776 338.988 401.776zM338.988 225.959c-40.83 0-74.041 33.211-74.041 74.041 0 40.803 33.211 74.015 74.041 74.015 40.83 0 74.042-33.212 74.042-74.015C413.03 259.17 379.818 225.959 338.988 225.959zM542.568 716.432c-229.986 0-416.432-186.445-416.432-416.432 0-47.798 8.161-93.643 22.991-136.37 6.642-19.223 14.64-37.821 23.912-55.633 2.305-3.443 4.284-7.076 6.1-10.845 5.422-11.306 8.54-23.939 8.54-37.306 0-47.852-38.905-86.757-86.756-86.757-8.133 0-15.996 1.193-23.479 3.308-2.63-9.38-6.859-17.866-12.444-25.132 11.306-3.769 23.343-5.938 35.923-5.938 61.055 0 110.804 47.824 114.193 108.012 0.136 2.169 0.325 4.311 0.325 6.507 0 18.273-4.392 35.517-12.01 50.861-1.247 2.196-2.413 4.446-3.606 6.696C170.626 171.898 153.898 233.983 153.898 300c0 214.316 174.354 388.67 388.67 388.67 214.316 0 388.67-174.354 388.67-388.67s-174.354-388.67-388.67-388.67c-81.714 0-157.572 25.403-220.227 68.646-1.681-9.868-3.85-19.602-6.805-29.01 65.312-42.564 143.257-67.398 227.031-67.398C772.555-116.432 959 70.014 959 300S772.555 716.432 542.568 716.432z"  horiz-adv-x="1024" />

    
    <glyph glyph-name="mulu" unicode="&#58982;" d="M480 748C214.848 748 0 533.088 0 268 0 2.848 214.848-212 480-212S960 2.848 960 268C960 533.088 745.152 748 480 748zM480-148C250.624-148 64 38.624 64 268S250.624 684 480 684 896 497.376 896 268 709.376-148 480-148zM704 492 448 492C430.336 492 416 477.664 416 460S430.336 428 448 428l256 0c17.664 0 32 14.336 32 32S721.664 492 704 492zM704 300 448 300C430.336 300 416 285.664 416 268S430.336 236 448 236l256 0c17.664 0 32 14.336 32 32S721.664 300 704 300zM704 108 448 108c-17.664 0-32-14.336-32-32S430.336 44 448 44l256 0c17.664 0 32 14.336 32 32S721.664 108 704 108zM320 492 256 492C238.336 492 224 477.664 224 460S238.336 428 256 428l64 0c17.664 0 32 14.336 32 32S337.664 492 320 492zM320 300 256 300C238.336 300 224 285.664 224 268S238.336 236 256 236l64 0c17.664 0 32 14.336 32 32S337.664 300 320 300zM320 108 256 108c-17.664 0-32-14.336-32-32S238.336 44 256 44l64 0c17.664 0 32 14.336 32 32S337.664 108 320 108z"  horiz-adv-x="1024" />

    
    <glyph glyph-name="shouye" unicode="&#58910;" d="M831.473637 272.663398 519.280312 561.497713 207.085964 278.697835 291.761482 277.878167 291.485189 46.628362 460.28978 46.628362 460.28978 194.304749 565.785485 194.304749 565.785485 46.628362 734.592123 46.628362 735.20713 273.594607ZM511.253498-146.443935c-60.290131 0-118.786407 11.811-173.86177 35.106566-53.18941 22.496363-100.954273 54.700833-141.968385 95.714945-41.015136 41.015136-73.217558 88.779999-95.714945 141.968385C76.413855 181.421324 64.601832 239.916577 64.601832 300.207731c0 60.291155 11.811 118.786407 35.106566 173.86177 22.497387 53.18941 54.700833 100.954273 95.714945 141.968385s88.779999 73.217558 141.968385 95.714945c55.075363 23.294542 113.570615 35.106566 173.86177 35.106566 60.291155 0 118.786407-11.811 173.86177-35.106566 53.18941-22.497387 100.954273-54.700833 141.969409-95.714945 41.014112-41.015136 73.217558-88.779999 95.714945-141.968385 23.295566-55.075363 35.106566-113.570615 35.106566-173.86177 0-60.290131-11.811-118.786407-35.106566-173.86177-22.497387-53.18941-54.700833-100.95325-95.714945-141.968385-41.015136-41.014112-88.781022-73.218582-141.969409-95.714945C630.039905-134.632935 571.544653-146.443935 511.253498-146.443935zM511.253498 716.160211c-229.356688 0-415.95248-186.595792-415.95248-415.95248 0-229.356688 186.595792-415.95248 415.95248-415.95248 229.357711 0 415.953504 186.595792 415.953504 415.95248C927.208025 529.564419 740.61121 716.160211 511.253498 716.160211z"  horiz-adv-x="1024" />

    
    <glyph glyph-name="dianying2" unicode="&#58933;" d="M855.790933-98.244978m-22.7328 0a0.999 0.999 0 1 0 45.4656 0 0.999 0.999 0 1 0-45.4656 0ZM386.844444 265.866667c-50.267022 0-91.022222-40.7552-91.022222-91.022222s40.7552-91.022222 91.022222-91.022222 91.022222 40.7552 91.022222 91.022222S437.111467 265.866667 386.844444 265.866667zM386.844444 129.333333c-25.122133 0-45.511111 20.388978-45.511111 45.511111 0 25.144889 20.388978 45.511111 45.511111 45.511111s45.511111-20.366222 45.511111-45.511111C432.355556 149.722311 411.966578 129.333333 386.844444 129.333333zM855.790933-75.3984c-0.8192-0.045511-1.615644-0.113778-2.4576-0.113778l-151.734044 0C838.747022-6.084978 932.977778 135.773156 932.977778 300 932.977778 532.516267 744.493511 720.977778 512 720.977778 279.483733 720.977778 91.022222 532.516267 91.022222 300 91.022222 67.552 279.415467-120.886756 511.840711-120.977778c0.068267 0 0.113778 0 0.159289 0l341.333333 0c0.841956 0 1.6384 0.182044 2.4576 0.250311L855.790933-75.3984zM502.875022-75.011556c-5.984711 0.568889-11.332267 1.251556-15.519289 0.796444C291.544178-61.472 136.533333 100.9344 136.533333 300 136.533333 507.371378 304.651378 675.466667 512 675.466667S887.466667 507.371378 887.466667 300C887.466667 92.628622 719.348622-75.466667 512-75.466667 508.905244-75.466667 505.924267-75.057067 502.875022-75.011556zM637.155556 516.177778c-50.267022 0-91.022222-40.7552-91.022222-91.022222s40.7552-91.022222 91.022222-91.022222 91.022222 40.7552 91.022222 91.022222S687.422578 516.177778 637.155556 516.177778zM637.155556 379.644444c-25.122133 0-45.511111 20.388978-45.511111 45.511111s20.388978 45.511111 45.511111 45.511111 45.511111-20.388978 45.511111-45.511111S662.277689 379.644444 637.155556 379.644444zM386.844444 516.177778c-50.267022 0-91.022222-40.7552-91.022222-91.022222s40.7552-91.022222 91.022222-91.022222 91.022222 40.7552 91.022222 91.022222S437.111467 516.177778 386.844444 516.177778zM386.844444 379.644444c-25.122133 0-45.511111 20.388978-45.511111 45.511111s20.388978 45.511111 45.511111 45.511111 45.511111-20.388978 45.511111-45.511111S411.966578 379.644444 386.844444 379.644444zM637.155556 265.866667c-50.267022 0-91.022222-40.7552-91.022222-91.022222s40.7552-91.022222 91.022222-91.022222 91.022222 40.7552 91.022222 91.022222S687.422578 265.866667 637.155556 265.866667zM637.155556 129.333333c-25.122133 0-45.511111 20.388978-45.511111 45.511111 0 25.144889 20.388978 45.511111 45.511111 45.511111s45.511111-20.366222 45.511111-45.511111C682.666667 149.722311 662.277689 129.333333 637.155556 129.333333z"  horiz-adv-x="1024" />

    
    <glyph glyph-name="fanhuidingbu" unicode="&#58920;" d="M66.231959 308.854669c0 60.168358 11.789511 118.550023 35.041074 173.521009 22.451338 53.085032 54.591339 100.754728 95.52154 141.68493s88.599897 73.067132 141.68493 95.52154C393.452535 742.834734 451.832154 754.623221 512.000512 754.623221c60.167335 0 118.547976-11.789511 173.518962-35.041074 53.084009-22.452361 100.753705-54.591339 141.68493-95.52154s73.068156-88.599897 95.523587-141.68493c23.25054-54.973032 35.039028-113.353674 35.039028-173.521009 0-60.165288-11.789511-118.547976-35.041074-173.518962-22.451338-53.086056-54.592362-100.755752-95.522564-141.685953s-88.599897-73.068156-141.68493-95.52154c-54.973032-23.252587-113.352651-35.042097-173.519985-35.042097-60.167335 0-118.549 11.789511-173.519985 35.042097-53.085032 22.450315-100.754728 54.591339-141.68493 95.52154s-73.068156 88.599897-95.52154 141.685953C78.021469 190.308739 66.231959 248.689381 66.231959 308.854669zM906.603755 308.854669c0 217.584574-177.016623 394.60529-394.603243 394.60529-217.585597 0-394.60222-177.018669-394.60222-394.603243 0-217.584574 177.016623-394.603243 394.60222-394.603243S906.603755 91.272141 906.603755 308.854669zM721.249233 262.974735 528.696776 465.287487c-4.793166 5.036713-10.664897 7.444553-16.482393 7.348362-5.833869 0.106424-11.716856-2.302439-16.522302-7.348362l-192.59646-202.311729c-10.647501-11.17041-12.007475-31.03483-3.063779-44.312228 4.937452-7.439436 12.094456-11.252275 19.25146-11.252275 5.704932 0 11.45489 2.400676 16.138562 7.358595l176.771029 185.691189 176.773076-185.689143c4.683672-4.960988 10.435677-7.358595 16.142655-7.358595 7.151887 0 14.308891 3.816932 19.249413 11.252275C733.301733 231.939905 731.894687 251.804325 721.249233 262.974735L721.249233 262.974735z"  horiz-adv-x="1024" />

    
    <glyph glyph-name="biaoqian" unicode="&#58952;" d="M502.562133-210.225067 5.341867 286.961067 456.704 738.3232 480.836267 714.190933 53.6064 286.961067 502.562133-161.960533 929.792 265.218133 953.941333 241.085867ZM1026.491733 320.753067 992.3584 320.753067 992.3584 776.791467 536.3712 776.791467 536.3712 810.9248 1026.491733 810.9248ZM705.348267 337.4784l-0.938667 0c-83.9168 0.529067-151.808 69.2224-151.330133 153.122133 0.4608 83.456 68.727467 151.364267 152.1664 151.364267 84.906667-0.529067 152.7808-69.239467 152.302933-153.1392C857.070933 405.3696 788.7872 337.4784 705.348267 337.4784zM705.979733 607.831467c-65.450667 0-118.408533-52.667733-118.766933-117.4016-0.3584-65.092267 52.292267-118.391467 117.4016-118.801067l0.733867-17.066667 0 17.066667c64.733867 0 117.691733 52.667733 118.0672 117.4016C823.808 554.122667 771.1232 607.4048 705.979733 607.831467z"  horiz-adv-x="1027" />

    
    <glyph glyph-name="wodedingdan37" unicode="&#58943;" d="M512 812C229.68 812 0 582.32 0 300c0-282.352 229.68-512 512-512 282.336 0 512 229.664 512 512C1024 582.32 794.336 812 512 812zM512-151.76C262.896-151.76 60.24 50.896 60.24 300 60.24 549.104 262.896 751.76 512 751.76c249.104 0 451.76-202.672 451.76-451.76C963.76 50.896 761.104-151.76 512-151.76zM512 390.352c-16.624 0-30.112-13.488-30.112-30.112l0-346.352c0-16.656 13.488-30.112 30.112-30.112s30.128 13.456 30.128 30.112L542.128 360.24C542.128 376.864 528.624 390.352 512 390.352zM451.76 540.944c0 33.264 26.976 60.24 60.24 60.24 33.28 0 60.24-26.976 60.24-60.24S545.28 480.704 512 480.704C478.736 480.704 451.76 507.664 451.76 540.944z"  horiz-adv-x="1024" />

    
    <glyph glyph-name="yonghu" unicode="&#58881;" d="M515.541449 804.917101c-280.359429 0-508.458551-228.120391-508.458551-508.458551s228.120391-508.458551 508.458551-508.458551 508.458551 228.120391 508.458551 508.458551S795.900879 804.917101 515.541449 804.917101zM515.541449-169.864196c-257.132626 0-466.301477 209.190121-466.301477 466.322747 0 257.132626 209.168851 466.322747 466.301477 466.322747s466.301477-209.190121 466.301477-466.322747S772.674075-169.864196 515.541449-169.864196zM614.574414 287.822944 614.574414 287.822944c47.751075 31.96876 79.230625 86.398604 79.230625 148.187857 0 98.437405-79.804915 178.24232-178.24232 178.24232-98.437405 0-178.24232-79.804915-178.24232-178.24232 0-61.810523 31.479551-116.219097 79.251895-148.187857-100.266622-39.519598-171.244501-137.170014-171.244501-251.453545 0-0.23397 0-0.446669 0.02127-0.659369 0-0.04254-0.02127-0.10635-0.02127-0.14889 0-15.612155 12.65563-28.246516 28.267786-28.246516 15.590885 0 21.886796 12.63436 21.886796 28.246516 0 0.340319-0.08508 0.659369-0.10635 1.020958 0.10635 118.005774 102.159649 219.995264 220.207964 219.995264 118.112124 0 220.207964-102.095839 220.207964-220.207964 0-0.14889-1.467628-29.054774 21.971875-29.054774 15.505806 0 28.076356 12.57055 28.076356 28.055086 0 0.06381-0.02127 0.12762-0.02127 0.2127 0 0.25524 0.02127 0.510479 0.02127 0.786989C785.797645 150.65293 714.798496 248.303346 614.574414 287.822944zM515.541449 301.265563c-74.402343 0-134.723968 60.321625-134.723968 134.723968 0 74.423613 60.321625 134.723968 134.723968 134.723968 74.423613 0 134.723968-60.321625 134.723968-134.723968S589.943792 301.265563 515.541449 301.265563z"  horiz-adv-x="1024" />

    
    <glyph glyph-name="zhuxiao" unicode="&#58935;" d="M871.296 659.296c-198.464 198.464-520.192 198.464-718.656 0s-198.464-520.192 0-718.656 520.192-198.464 718.656 0C1069.76 139.104 1069.76 460.896 871.296 659.296zM492.352 598.176c0 10.624 8.704 19.328 19.328 19.328l0 0c10.624 0 19.328-8.704 19.328-19.328l0-152.32c0-10.624-8.704-19.328-19.328-19.328l0 0c-10.624 0-19.328 8.704-19.328 19.328L492.352 598.176zM670.528 151.392c-84.928-90.496-227.584-91.584-313.92-3.264C271.744 234.848 274.176 373.216 361.856 457.12c17.92 17.152 38.016 30.592 59.392 40.448C434.24 503.456 448.96 493.92 448.96 479.712l0 0c0-7.68-4.48-14.592-11.456-17.792C418.368 453.152 400.512 440.736 384.832 424.864c-68.544-69.76-67.648-182.784 1.856-251.52 69.376-68.608 181.12-68.672 250.496-0.064 69.504 68.672 70.464 181.632 2.112 251.392C623.744 440.608 605.888 452.96 586.816 461.792 579.84 464.992 575.424 471.904 575.424 479.52l0 0c0 14.272 14.784 23.744 27.712 17.792 21.76-10.048 42.176-23.872 60.288-41.472C747.008 374.624 750.4 236.384 670.528 151.392z"  horiz-adv-x="1024" />

    
    <glyph glyph-name="liuyanxiang" unicode="&#58912;" d="M512.010665-212C229.241793-212 0.010665 17.231128 0.010665 300 0.010665 582.768872 229.241793 812 512.010665 812 794.758207 812 1023.989335 582.768872 1023.989335 300 1023.989335 17.231128 794.758207-212 512.010665-212ZM511.989335 790.670222C241.015831 790.670222 21.340443 570.973504 21.340443 300 21.340443 29.026496 241.015831-190.648892 511.989335-190.648892 782.984169-190.648892 1002.659557 29.026496 1002.659557 300 1002.659557 570.973504 782.984169 790.670222 511.989335 790.670222ZM511.925346 86.702216C494.370938 86.702216 464.743876 83.929345 447.936011 86.702216L341.287119 22.712881 341.287119 150.691551C277.959007 195.164139 234.638227 263.035494 234.638227 339.609398 234.638227 473.603066 358.777537 577.287119 511.925346 577.287119 665.073154 577.287119 789.212465 473.603066 789.212465 339.609398 789.212465 205.615731 663.6014 86.702216 511.925346 86.702216ZM511.925346 534.627562C382.346942 534.627562 277.297784 446.898184 277.297784 333.509082 277.297784 268.709215 330.344943 209.647059 383.946676 172.02133L383.946676 86.702216 447.936011 129.361773C462.162973 127.015497 497.05849 129.361773 511.925346 129.361773 640.266622 129.361773 746.552908 220.14131 746.552908 333.509082 746.552908 446.898184 641.503749 534.627562 511.925346 534.627562ZM618.574238 342.510248 405.425762 342.510248C393.651725 342.510248 384.095984 352.044659 384.095984 363.840027L384.095984 364.074654C384.095984 375.848692 393.651725 385.404433 405.425762 385.404433L618.574238 385.404433C630.348275 385.404433 639.904016 375.848692 639.904016 364.074654L639.904016 363.840027C639.904016 352.044659 630.348275 342.510248 618.574238 342.510248ZM447.936011 278.755541 576.063989 278.755541C587.859357 278.755541 597.393768 269.1998 597.393768 257.425762L597.393768 257.191135C597.393768 245.395767 587.859357 235.861356 576.063989 235.861356L447.936011 235.861356C436.161973 235.861356 426.606232 245.395767 426.606232 257.191135L426.606232 257.425762C426.606232 269.1998 436.161973 278.755541 447.936011 278.755541Z"  horiz-adv-x="1024" />

    
    <glyph glyph-name="guanyu" unicode="&#59047;" d="M512 896C229.680264 896 0 666.317971 0 384c0-282.353266 229.680264-512 512-512 282.32503 0 512 229.673205 512 512C1024 666.317971 794.32503 896 512 896L512 896zM512-67.765225c-249.09911 0-451.765225 202.659056-451.765225 451.765225 0 249.09911 202.666115 451.765225 451.765225 451.765225 249.106169 0 451.765225-202.666115 451.765225-451.765225C963.765225 134.893831 761.106169-67.765225 512-67.765225L512-67.765225zM512 474.35128c-16.627078 0-30.11827-13.489427-30.11827-30.116505l0-346.352163c0-16.655313 13.491192-30.116505 30.11827-30.116505s30.116505 13.462957 30.116505 30.116505L542.116505 444.234775C542.116505 460.861853 528.627078 474.35128 512 474.35128L512 474.35128zM451.765225 624.937336c0 15.772959 6.494125 31.447095 17.64002 42.594755 11.152954 11.152954 26.821796 17.647079 42.594755 17.647079 15.772959 0 31.440036-6.494125 42.594755-17.647079 11.152954-11.14766 17.64002-26.821796 17.64002-42.594755 0-15.764136-6.487066-31.440036-17.64002-42.587696-11.152954-11.152954-26.821796-17.647079-42.594755-17.647079-15.772959 0-31.441801 6.494125-42.594755 17.647079C458.25935 593.4973 451.765225 609.1732 451.765225 624.937336L451.765225 624.937336zM451.765225 624.937336"  horiz-adv-x="1024" />

    
    <glyph glyph-name="github4" unicode="&#59148;" d="M512 896c-282.784 0-512-229.216-512-512s229.216-512 512-512 512 229.216 512 512-229.216 512-512 512zM816.064 79.936c-39.52-39.52-85.504-70.528-136.704-92.192-12.992-5.504-26.208-10.336-39.616-14.496l0 76.736c0 40.32-13.824 70.016-41.504 88.992 17.344 1.664 33.248 4 47.744 7.008s29.824 7.328 46.016 12.992 30.656 12.416 43.488 20.256 25.152 18.016 36.992 30.496 21.76 26.656 29.76 42.496 14.336 34.848 19.008 56.992 7.008 46.592 7.008 73.248c0 51.68-16.832 95.68-50.496 132 15.328 40 13.664 83.488-4.992 130.496l-12.512 1.504c-8.672 0.992-24.256-2.656-46.752-11.008s-47.744-22.016-75.744-40.992c-39.68 11.008-80.832 16.512-123.488 16.512-43.008 0-84-5.504-123.008-16.512-17.664 12-34.4 21.92-50.24 29.76s-28.512 13.152-38.016 16-18.336 4.576-26.496 5.248-13.408 0.832-15.744 0.512-4-0.672-4.992-0.992c-18.656-47.328-20.32-90.848-4.992-130.496-33.664-36.32-50.496-80.32-50.496-132 0-26.656 2.336-51.072 7.008-73.248s11.008-41.152 19.008-56.992 17.92-30.016 29.76-42.496 24.16-22.656 36.992-30.496 27.328-14.592 43.488-20.256 31.488-10.016 46.016-12.992 30.4-5.344 47.744-7.008c-27.328-18.656-40.992-48.32-40.992-88.992l0-78.24c-15.104 4.48-29.984 9.792-44.608 16-51.2 21.664-97.184 52.672-136.704 92.192s-70.528 85.504-92.192 136.704c-22.4 52.96-33.76 109.248-33.76 167.36s11.36 114.4 33.76 167.36c21.664 51.2 52.672 97.184 92.192 136.704s85.504 70.528 136.704 92.192c52.96 22.4 109.28 33.76 167.36 33.76s114.4-11.36 167.36-33.76c51.2-21.664 97.184-52.672 136.704-92.192s70.528-85.504 92.192-136.704c22.4-52.96 33.76-109.28 33.76-167.36s-11.36-114.4-33.76-167.36c-21.664-51.2-52.672-97.184-92.192-136.704z"  horiz-adv-x="1024" />

    
    <glyph glyph-name="iconfontfanhuidingbu" unicode="&#58929;" d="M713.295 317.221l-185.102 194.491c-4.609 4.845-10.251 7.158-15.847 7.065-5.604 0.103-11.26-2.215-15.879-7.065l-185.149-194.491c-10.238-10.736-11.543-29.829-2.947-42.597 4.75-7.149 11.627-10.815 18.508-10.815 5.483 0 11.012 2.31 15.515 7.073l169.936 178.511 169.936-178.507c4.502-4.769 10.031-7.079 15.518-7.079 6.877 0 13.758 3.671 18.502 10.82 8.599 12.757 7.247 31.858-2.986 42.592v0h-0.006zM713.295 317.221zM877.153 573.618c-56.308 97.568-147.241 167.377-256.057 196.517-224.611 60.158-456.338-73.607-516.557-298.244-60.187-224.61 73.633-456.336 298.244-516.556 36.337-9.758 73.099-14.543 109.604-14.543 76.109 0 151.147 20.898 218.483 61.824 9.928 6.045 13.077 18.983 7.059 28.966-6.074 9.928-19.015 13.077-29 7.032-89.636-54.478-194.428-69.583-295.234-42.584-202.138 54.203-322.572 262.751-268.375 464.89 54.173 202.192 262.749 322.601 464.889 268.428 97.879-26.267 179.779-89.073 230.488-176.882 50.652-87.805 64.129-190.072 37.884-288.030-9.083-33.919-23.203-66.884-41.935-97.851-5.989-9.985-2.783-22.92 7.201-28.995 9.956-6.023 22.868-2.788 28.916 7.167 20.756 34.425 36.448 71.020 46.573 108.792 29.168 108.845 14.147 222.504-42.185 320.068v0zM877.153 573.618z"  horiz-adv-x="1025" />

    
    <glyph glyph-name="ziwomiaoshu" unicode="&#58959;" d="M886.833479 580.292642 629.322567 580.292642l0-41.336454 257.510912 0L886.833479 580.292642zM629.322567 412.089755l257.510912 0 0 41.336454L629.322567 453.426209 629.322567 412.089755zM427.549098 317.762413c65.933665 35.709293 110.88546 106.023732 110.88546 186.797383 0 116.762307-94.001931 211.733309-209.53934 211.733309s-209.53934-94.971002-209.53934-211.733309c0-80.774675 44.953841-151.09116 110.887506-186.798407C105.646644 275.874397 15.555789 156.915052 15.555789 17.102772l40.876989 0c0 151.872966 122.221646 275.422863 272.461415 275.422863 150.289911 0 272.51258-123.549897 272.51258-275.422863l40.876989 0C642.284787 156.916075 552.160163 275.876444 427.549098 317.762413zM160.284031 504.56082c0 93.950765 75.629491 170.44802 168.611186 170.44802s168.662351-76.497255 168.662351-170.44802c0-94.001931-75.680657-170.442904-168.662351-170.442904S160.284031 410.558889 160.284031 504.56082zM507.712859 748.699166l0-97.267301 40.928155 0 0 55.93187 418.924161 0 0-424.585091L807.935548 282.778644l-91.041506-111.913882 15.667841 110.842481-150.137439-0.306992 0.050142-41.336454 102.933347 0.203638L655.859967 30.62781l171.418115 210.865545 181.165106 0L1008.443188 748.699166 507.712859 748.699166z"  horiz-adv-x="1024" />

    
    <glyph glyph-name="dianying" unicode="&#58932;" d="M312.0128 487.048533c19.012267 0 34.474667 15.086933 34.474667 33.655467 0 18.568533-15.4624 33.6896-34.474667 33.6896-19.012267 0-34.474667-15.121067-34.474667-33.6896C277.504 502.135467 292.9664 487.048533 312.0128 487.048533zM682.3936 250.641067l114.3808-28.603733 0 103.355733-114.3808-29.5936L682.3936 250.641067zM268.151467 180.497067l303.9232 0 0 186.606933L268.151467 367.104 268.151467 180.497067zM510.1568 613.751467c-35.362133 0-64.1024-28.433067-64.1024-63.351467 0-34.9184 28.7744-63.351467 64.1024-63.351467s64.1024 28.433067 64.1024 63.351467C574.2592 585.3184 545.4848 613.751467 510.1568 613.751467zM512 896C229.239467 896 0 666.760533 0 384s229.239467-512 512-512 512 229.239467 512 512S794.760533 896 512 896zM312.0128 593.783467c39.8336 0 72.226133-32.768 72.226133-73.079467 0-40.277333-32.392533-73.045333-72.226133-73.045333-39.8336 0-72.260267 32.768-72.260267 73.045333C239.752533 561.015467 272.1792 593.783467 312.0128 593.783467zM609.860267 160.836267c0-10.888533-8.465067-19.694933-18.875733-19.694933L249.275733 141.141333c-10.410667 0-18.875733 8.8064-18.875733 19.694933l0 225.962667c0 10.888533 8.465067 19.694933 18.875733 19.694933l341.7088 0c10.410667 0 18.875733-8.8064 18.875733-19.694933L609.860267 160.836267zM510.1568 447.658667c-56.183467 0-101.853867 46.08-101.853867 102.741333s45.6704 102.741333 101.853867 102.741333 101.853867-46.08 101.853867-102.741333S566.340267 447.658667 510.1568 447.658667zM834.525867 197.051733c0-6.075733-2.628267-11.741867-7.202133-15.4624-3.345067-2.7648-7.4752-4.232533-11.6736-4.232533-1.467733 0-2.935467 0.170667-4.4032 0.546133l-152.132267 38.058667c-8.4992 2.1504-14.472533 10.0352-14.472533 19.1488l0 76.0832c0 9.079467 5.905067 16.964267 14.336 19.1488l152.098133 39.355733c5.632 1.467733 11.639467 0.136533 16.213333-3.584 4.573867-3.754667 7.236267-9.454933 7.236267-15.530667L834.525867 197.051733z"  horiz-adv-x="1024" />

    
    <glyph glyph-name="weibo1" unicode="&#58993;" d="M445.146218 221.098446C344.252711 216.374421 262.697586 266.973207 262.697586 334.291288 262.697586 401.684004 344.252711 455.743577 445.146218 460.402645 546.093627 465.050657 627.820134 423.452127 627.820134 356.183796 627.820134 288.860186 546.093627 225.671825 445.146218 221.098446M659.97061 439.821751C635.993891 444.469763 647.650545 457.373075 647.650545 457.373075 647.650545 457.373075 671.092392 496.023582 643.002533 524.113441 608.190127 558.914791 523.612345 519.681037 523.612345 519.681037 491.30569 509.660791 499.856761 524.265472 504.42461 549.104623 504.42461 578.372034 494.404364 627.934242 408.331145 598.661304 322.369877 569.243245 248.551764 466.135608 248.551764 466.135608 197.209407 397.646884 204.017646 344.705434 204.017646 344.705434 216.822829 227.809941 341.018591 195.72995 437.61376 188.133914 539.252221 180.164707 676.399669 223.166074 718.002344 311.501794 759.589819 400.006134 684.00676 435.021708 659.97061 439.821751M459.247814 333.556009C452.816889 328.75735 444.908498 329.415231 441.53893 335.181365 437.992455 340.780263 439.320655 349.774987 445.809628 354.499016 453.324123 360.10206 461.153736 358.487763 464.538505 352.87366 467.923274 347.129641 465.499067 338.502557 459.247814 333.556009M399.417965 282.607553C380.467953 280.378223 365.199862 291.299599 365.199862 307.161993 365.199862 322.931785 378.77764 339.463118 397.733181 341.439524 419.484715 343.512678 433.64574 330.964566 433.64574 315.120141 433.64574 299.34482 418.286433 284.745665 399.417965 282.607553M425.013126 415.997063C323.552957 404.124801 335.273189 309.077587 335.273189 309.077587 335.273189 309.077587 334.232466 278.974005 362.478503 263.652012 421.849494 231.486332 482.970228 250.954633 513.878194 290.851797 544.770956 330.743431 526.635001 427.804368 425.013126 415.997063M709.36973 480.966953C717.549016 480.966953 724.492701 487.023329 725.674397 494.901314 725.815372 495.499766 725.880333 496.023582 725.880333 496.677317 738.275031 608.098302 634.591057 588.921625 634.591057 588.921625 625.375196 588.921625 618.005821 581.476237 618.005821 572.185742 618.005821 563.038984 625.375196 555.58945 634.591057 555.58945 709.072579 572.03371 692.622792 497.561861 692.622792 497.561861 692.622792 488.347384 700.138668 480.966953 709.36973 480.966953M697.287389 675.459231C661.434259 683.855505 624.570811 676.60914 614.221626 674.634115 613.432446 674.552571 612.676433 673.807618 611.953595 673.65144 611.591482 673.586481 611.370347 673.218842 611.370347 673.218842 601.177339 670.341304 593.743007 660.904306 593.743007 649.765939 593.743007 636.496369 604.502677 625.579139 617.924278 625.579139 617.924278 625.579139 630.983769 627.328881 639.822316 630.795195 648.595905 634.320939 722.856289 633.423955 759.730794 571.483633 779.862505 526.284724 768.584545 496.023582 767.185857 491.159962 767.185857 491.159962 762.392725 479.421764 762.392725 467.852179 762.392725 454.501065 773.152395 446.111701 786.497982 446.111701 797.636347 446.111701 807.008388 447.644454 809.735277 466.492191L809.874868 466.492191C849.47488 598.466427 761.430782 660.477236 697.287389 675.459231M511.996538 894.651452C238.349895 894.651452 16.493931 672.80104 16.493931 399.191869 16.493931 125.491101 238.345732-96.31629 511.996538-96.31629 785.654285-96.31629 1007.506085 125.491101 1007.506085 399.191869 1007.506085 672.80104 785.654285 894.651452 511.996538 894.651452M511.240469 868.11292C769.41386 868.11292 979.454028 658.115711 979.454028 399.947865 979.454028 141.731516 769.41386-68.292023 511.240469-68.292023 253.029665-68.292023 42.989498 141.731516 42.989498 399.947865 42.989498 658.115711 253.029665 868.11292 511.240469 868.11292"  horiz-adv-x="1024" />

    
    <glyph glyph-name="dianying3" unicode="&#58936;" d="M928-64l-832 0C43.072-64 0-20.928 0 32l0 704C0 788.928 43.072 832 96 832l832 0C980.928 832 1024 788.928 1024 736l0-704C1024-20.928 980.928-64 928-64zM96 768C78.336 768 64 753.664 64 736l0-704C64 14.4 78.336 0 96 0l832 0c17.6 0 32 14.4 32 32l0 704C960 753.664 945.6 768 928 768L96 768zM64 575.936l895.872 0 0-64-895.872 0 0 64ZM192 767.936l64 0 0-192-64 0 0 192ZM384 767.936l64 0 0-192-64 0 0 192ZM576 767.936l64 0 0-192-64 0 0 192ZM768 767.936l64 0 0-192-64 0 0 192ZM438.208 376.64C400.32 395.584 384 376.448 384 334.016l0-153.728c0-42.368 16.32-61.504 54.208-42.496l162.88 85.12c37.888 19.008 41.472 49.92 3.712 68.672L438.208 376.64z"  horiz-adv-x="1024" />

    
    <glyph glyph-name="liuyan" unicode="&#58921;" d="M512-128c-282.293677 0-512 229.706323-512 512.033032 0 282.293677 229.67329 512 512 512 282.32671 0 512-229.67329 512-512C1024.033032 101.706323 794.359742-128 512-128zM512 862.967742c-264.092903 0-478.967742-214.841806-478.967742-478.967742 0-264.125935 214.841806-479.000774 478.967742-479.000774 264.125935 0 478.967742 214.874839 478.967742 479.000774C991.000774 648.125935 776.125935 862.967742 512 862.967742zM486.631226 180.719484c-6.969806-7.035871-15.756387-10.504258-24.774194-12.254968l-209.589677-103.688258c-23.585032-10.96671-42.479484 10.206968-33.758968 33.792l103.622194 209.688774c1.75071 9.017806 5.252129 17.804387 12.221935 24.774194L706.659097 705.569032c18.696258 18.663226 48.953806 18.663226 67.683097 0l84.661677-84.69471c18.696258-18.696258 18.696258-49.019871 0-67.716129L486.631226 180.719484 486.631226 180.719484 486.631226 180.719484 486.631226 180.719484zM264.324129 127.537548c-5.483355-11.032774 5.12-22.395871 16.879484-16.912516l129.387355 78.385548L342.643613 257.024 264.324129 127.537548 264.324129 127.537548 264.324129 127.537548 264.324129 127.537548zM385.123097 282.260645l50.770581-50.770581c9.348129-9.348129-14.831484 14.831484 16.945548-16.912516l270.732387 270.864516-85.223226 84.100129-270.104774-270.302968C377.195355 290.188387 375.774968 291.608774 385.123097 282.260645L385.123097 282.260645 385.123097 282.260645 385.123097 282.260645zM808.200258 603.961806l-50.770581 50.803613c-9.348129 9.282065-24.509935 9.282065-33.858065 0l-49.548387-49.614452 83.406452-85.850839 50.770581 50.803613C817.482323 579.418839 817.482323 594.580645 808.200258 603.961806L808.200258 603.961806 808.200258 603.961806 808.200258 603.961806zM808.200258 603.961806"  horiz-adv-x="1024" />

    
    <glyph glyph-name="weibo2" unicode="&#59001;" d="M445.146218 221.098446C344.252711 216.374421 262.697586 266.973207 262.697586 334.291288 262.697586 401.684004 344.252711 455.743577 445.146218 460.402645 546.093627 465.050657 627.820134 423.452127 627.820134 356.183796 627.820134 288.860186 546.093627 225.671825 445.146218 221.098446M659.97061 439.821751C635.993891 444.469763 647.650545 457.373075 647.650545 457.373075 647.650545 457.373075 671.092392 496.023582 643.002533 524.113441 608.190127 558.914791 523.612345 519.681037 523.612345 519.681037 491.30569 509.660791 499.856761 524.265472 504.42461 549.104623 504.42461 578.372034 494.404364 627.934242 408.331145 598.661304 322.369877 569.243245 248.551764 466.135608 248.551764 466.135608 197.209407 397.646884 204.017646 344.705434 204.017646 344.705434 216.822829 227.809941 341.018591 195.72995 437.61376 188.133914 539.252221 180.164707 676.399669 223.166074 718.002344 311.501794 759.589819 400.006134 684.00676 435.021708 659.97061 439.821751M459.247814 333.556009C452.816889 328.75735 444.908498 329.415231 441.53893 335.181365 437.992455 340.780263 439.320655 349.774987 445.809628 354.499016 453.324123 360.10206 461.153736 358.487763 464.538505 352.87366 467.923274 347.129641 465.499067 338.502557 459.247814 333.556009M399.417965 282.607553C380.467953 280.378223 365.199862 291.299599 365.199862 307.161993 365.199862 322.931785 378.77764 339.463118 397.733181 341.439524 419.484715 343.512678 433.64574 330.964566 433.64574 315.120141 433.64574 299.34482 418.286433 284.745665 399.417965 282.607553M425.013126 415.997063C323.552957 404.124801 335.273189 309.077587 335.273189 309.077587 335.273189 309.077587 334.232466 278.974005 362.478503 263.652012 421.849494 231.486332 482.970228 250.954633 513.878194 290.851797 544.770956 330.743431 526.635001 427.804368 425.013126 415.997063M709.36973 480.966953C717.549016 480.966953 724.492701 487.023329 725.674397 494.901314 725.815372 495.499766 725.880333 496.023582 725.880333 496.677317 738.275031 608.098302 634.591057 588.921625 634.591057 588.921625 625.375196 588.921625 618.005821 581.476237 618.005821 572.185742 618.005821 563.038984 625.375196 555.58945 634.591057 555.58945 709.072579 572.03371 692.622792 497.561861 692.622792 497.561861 692.622792 488.347384 700.138668 480.966953 709.36973 480.966953M697.287389 675.459231C661.434259 683.855505 624.570811 676.60914 614.221626 674.634115 613.432446 674.552571 612.676433 673.807618 611.953595 673.65144 611.591482 673.586481 611.370347 673.218842 611.370347 673.218842 601.177339 670.341304 593.743007 660.904306 593.743007 649.765939 593.743007 636.496369 604.502677 625.579139 617.924278 625.579139 617.924278 625.579139 630.983769 627.328881 639.822316 630.795195 648.595905 634.320939 722.856289 633.423955 759.730794 571.483633 779.862505 526.284724 768.584545 496.023582 767.185857 491.159962 767.185857 491.159962 762.392725 479.421764 762.392725 467.852179 762.392725 454.501065 773.152395 446.111701 786.497982 446.111701 797.636347 446.111701 807.008388 447.644454 809.735277 466.492191L809.874868 466.492191C849.47488 598.466427 761.430782 660.477236 697.287389 675.459231M511.996538 894.651452C238.349895 894.651452 16.493931 672.80104 16.493931 399.191869 16.493931 125.491101 238.345732-96.31629 511.996538-96.31629 785.654285-96.31629 1007.506085 125.491101 1007.506085 399.191869 1007.506085 672.80104 785.654285 894.651452 511.996538 894.651452M511.240469 868.11292C769.41386 868.11292 979.454028 658.115711 979.454028 399.947865 979.454028 141.731516 769.41386-68.292023 511.240469-68.292023 253.029665-68.292023 42.989498 141.731516 42.989498 399.947865 42.989498 658.115711 253.029665 868.11292 511.240469 868.11292"  horiz-adv-x="1024" />

    
    <glyph glyph-name="dianying4" unicode="&#58937;" d="M512-12.8C293.12-12.8 115.2 165.12 115.2 384S293.12 780.8 512 780.8c218.88 0 396.8-177.92 396.8-396.8S730.88-12.8 512-12.8zM512 755.2c-204.8 0-371.2-166.4-371.2-371.2s166.4-371.2 371.2-371.2c204.8 0 371.2 166.4 371.2 371.2S716.8 755.2 512 755.2zM499.2 473.6c-52.48 0-96 43.52-96 96S446.72 665.6 499.2 665.6s96-43.52 96-96S551.68 473.6 499.2 473.6zM499.2 640c-38.4 0-70.4-32-70.4-70.4S460.8 499.2 499.2 499.2c38.4 0 70.4 32 70.4 70.4S537.6 640 499.2 640zM307.2 288c-52.48 0-96 43.52-96 96 0 52.48 43.52 96 96 96s96-43.52 96-96C403.2 331.52 359.68 288 307.2 288zM307.2 454.4c-38.4 0-70.4-32-70.4-70.4s32-70.4 70.4-70.4 70.4 32 70.4 70.4S345.6 454.4 307.2 454.4zM678.4 288c-52.48 0-96 43.52-96 96 0 52.48 43.52 96 96 96s96-43.52 96-96C774.4 331.52 730.88 288 678.4 288zM678.4 454.4c-38.4 0-70.4-32-70.4-70.4s32-70.4 70.4-70.4 70.4 32 70.4 70.4S716.8 454.4 678.4 454.4zM499.2 102.4c-52.48 0-96 43.52-96 96S446.72 294.4 499.2 294.4s96-43.52 96-96S551.68 102.4 499.2 102.4zM499.2 268.8c-38.4 0-70.4-32-70.4-70.4S460.8 128 499.2 128c38.4 0 70.4 32 70.4 70.4S537.6 268.8 499.2 268.8zM870.4-12.8 473.6-12.8c-7.68 0-12.8 5.12-12.8 12.8s5.12 12.8 12.8 12.8l396.8 0c7.68 0 12.8-5.12 12.8-12.8S878.08-12.8 870.4-12.8z"  horiz-adv-x="1024" />

    
    <glyph glyph-name="yinlemusic214" unicode="&#58925;" d="M1024 384c0 282.763636-229.236364 512-512 512C229.236364 896 0 666.763636 0 384c0-282.763636 229.236364-512 512-512C794.763636-128 1024 101.236364 1024 384zM46.545455 384C46.545455 641.070545 254.929455 849.454545 512 849.454545c257.070545 0 465.454545-208.384 465.454545-465.454545s-208.384-465.454545-465.454545-465.454545C254.929455-81.454545 46.545455 126.929455 46.545455 384zM536.110545 199.354182c0.977455 3.863273 1.442909 10.984727 1.442909 21.410909L537.553455 239.243636l-0.372364 321.024c17.408-11.589818 40.866909-22.248727 70.376727-31.930182 28.997818-9.914182 43.52-22.714182 43.52-38.446545 0-10.146909-5.678545-22.388364-17.035636-36.631273l9.076364-14.894545c29.975273 29.277091 44.962909 54.784 44.962909 76.520727 0 33.373091-31.790545 59.624727-95.418182 78.708364-18.618182 5.818182-31.278545 11.589818-37.888 17.408-6.656 5.818182-12.753455 16.197818-18.338909 31.185455l-22.109091-1.070545 0-406.993455c-24.901818 21.504-50.641455 32.302545-77.265455 32.302545-29.509818 0-54.830545-5.818182-76.008727-17.408-21.178182-11.589818-31.744-25.646545-31.744-42.077091 0-39.191273 33.745455-58.786909 101.189818-58.786909 29.742545 0 53.853091 4.887273 72.378182 14.708364C521.448727 172.683636 532.48 184.832 536.110545 199.354182z"  horiz-adv-x="1024" />

    
    <glyph glyph-name="guidang" unicode="&#58931;" d="M512.002558 830.659853c-246.729357 0-446.662923-199.932542-446.662923-446.662923 0-246.724241 199.932542-446.656783 446.662923-446.656783 246.724241 0 446.656783 199.932542 446.656783 446.656783C958.659341 630.727311 758.726799 830.659853 512.002558 830.659853L512.002558 830.659853zM512.002558-20.122037c-223.331461 0-404.125107 180.793646-404.125107 404.119991 0 223.331461 180.793646 404.125107 404.125107 404.125107 221.200938 0 404.119991-180.793646 404.119991-404.125107C916.121526 160.671609 735.32788-20.122037 512.002558-20.122037L512.002558-20.122037zM512.002558-20.122037M703.428356 537.141866M755.842099 369.028007l-60.314691 157.254533c-2.15406 8.616238-10.769274 15.074324-21.537526 15.074324L559.82268 541.356864l0-45.234227 96.93268 0 43.082214-114.167203-73.243141 0c-12.920264 0-23.689538-10.768251-23.689538-23.696702l0-23.696702L421.960823 334.562031l0 23.696702c0 12.928451-10.774391 23.696702-23.696702 23.696702l-73.243141 0 43.082214 114.167203 96.939843 0 0 45.234227L350.869694 541.356864c-10.768251 0-17.232476-6.458085-21.536502-15.074324l-60.316737-157.254533c0-2.15406-2.152013-4.306072-2.152013-8.617261l0-144.319943c0-12.928451 10.770298-23.696702 23.689538-23.696702L727.840348 192.394101c12.928451 0 23.696702 10.768251 23.696702 23.696702L751.53705 360.409722C758.000252 364.721935 758.000252 366.873947 755.842099 369.028007L755.842099 369.028007zM441.346335 444.423161c0-6.464225 2.152013-12.922311 6.462179-15.080463l53.852512-53.852512c4.304026-4.304026 10.768251-6.462179 15.080463-6.462179 6.458085 0 12.920264 2.158153 15.0733 6.462179l53.856605 53.852512c4.306072 4.310166 6.458085 10.774391 6.458085 15.080463 0 12.926404-10.769274 23.696702-23.689538 23.696702-6.464225 0-12.928451-2.152013-15.080463-6.464225l-15.080463-15.080463L538.279015 588.749244c0 12.922311-10.769274 23.696702-23.697725 23.696702-12.920264 0-23.689538-10.774391-23.689538-23.696702l0-142.17407-15.080463 15.080463c-4.310166 4.312212-10.768251 6.464225-15.080463 6.464225C452.114586 465.966826 441.346335 457.349565 441.346335 444.423161L441.346335 444.423161zM441.346335 444.423161"  horiz-adv-x="1024" />

    
    <glyph glyph-name="weixin1" unicode="&#58981;" d="M512 896C229.226667 896 0 666.773333 0 384s229.226667-512 512-512 512 229.226667 512 512S794.773333 896 512 896zM512-106.645333C241.024-106.645333 21.344 113.024 21.344 384S241.024 874.645333 512 874.645333 1002.645333 654.976 1002.645333 384 782.976-106.645333 512-106.645333zM632.810667 493.781333c7.829333 0 15.573333-0.576 23.264-1.429333-20.906667 97.344-124.981333 169.674667-243.786667 169.674667C279.466667 662.026667 170.666667 571.498667 170.666667 456.544c0-66.357333 36.202667-120.842667 96.682667-163.104l-24.16-72.682667 84.469333 42.368c30.218667-5.994667 54.464-12.138667 84.629333-12.138667 7.584 0 15.104 0.373333 22.56 0.96-4.725333 16.16-7.456 33.077333-7.456 50.624C427.381333 408.128 518.026667 493.781333 632.810667 493.781333L632.810667 493.781333zM502.890667 559.296c18.186667 0 30.24-11.968 30.24-30.144 0-18.112-12.053333-30.250667-30.24-30.250667-18.112 0-36.277333 12.138667-36.277333 30.250667C466.613333 547.328 484.778667 559.296 502.890667 559.296L502.890667 559.296zM333.792 498.901333c-18.101333 0-36.384 12.128-36.384 30.24 0 18.176 18.272 30.144 36.384 30.144 18.112 0 30.154667-11.968 30.154667-30.144C363.946667 511.029333 351.904 498.901333 333.792 498.901333L333.792 498.901333zM853.333333 305.472c0 96.597333-96.672 175.338667-205.226667 175.338667-114.965333 0-205.514667-78.741333-205.514667-175.338667 0-96.757333 90.538667-175.338667 205.514667-175.338667 24.053333 0 48.32 6.058667 72.490667 12.128l66.282667-36.288-18.176 60.373333C817.194667 202.730667 853.333333 250.976 853.333333 305.472L853.333333 305.472zM581.472 335.701333c-12.032 0-24.170667 11.968-24.170667 24.181333 0 12.042667 12.138667 24.170667 24.170667 24.170667 18.272 0 30.250667-12.128 30.250667-24.170667C611.722667 347.669333 599.744 335.701333 581.472 335.701333L581.472 335.701333zM714.378667 335.701333c-11.946667 0-24 11.968-24 24.181333 0 12.042667 12.053333 24.170667 24 24.170667 18.101333 0 30.24-12.128 30.24-24.170667C744.618667 347.669333 732.48 335.701333 714.378667 335.701333L714.378667 335.701333z"  horiz-adv-x="1024" />

    
    <glyph glyph-name="yiguidang" unicode="&#59152;" d="M517.12 888.40192c-280.71936 0-508.20096-227.4816-508.20096-508.20608C8.91904 99.4816 236.39552-128 517.12-128c280.71936 0 508.20096 227.4816 508.20096 508.19584C1025.32096 660.92032 797.83936 888.40192 517.12 888.40192L517.12 888.40192 517.12 888.40192zM517.12-79.60064c-254.09536 0-459.8016 205.70112-459.8016 459.79648 0 254.10048 205.70112 459.80672 459.8016 459.80672 251.67872 0 459.8016-205.70112 459.8016-459.80672C976.9216 126.10048 771.21536-79.60064 517.12-79.60064zM811.258 214.067c0-28.255-22.875-51.175-51.145-51.175L274.354 162.892c-28.227 0-51.105 22.92-51.105 51.175L223.249 350.841c-0.818 3.635 0.042 7.97 3.042 12.675l126.075 212.417c7.492 11.857 25.162 21.572 39.225 21.572l263.247 0c14.02 0 31.315-9.97 38.365-22.12l115.015-211.344c1.91-3.36 2.81-6.55 2.89-9.34l0.17 0 0-140.635L811.258 214.066zM264.429 237.612c0-13.325 10.765-24.055 24.05-24.055l457.529 0c13.305 0 24.075 10.75 24.075 24.055l0 95.345-144.46 0 0-48.165c0-13.305-10.79-24.075-24.075-24.075L433.001 260.717c-13.307 0-24.095 10.77-24.095 24.075l0 48.165L264.429 332.957 264.429 237.612zM584.003 312.787l0 21.85 0 10.955 0 21.85L450.651 367.442l0-21.85 0-10.955 0-21.85c0-6.045 4.867-10.91 10.935-10.91l111.482 0C579.119 301.877 584.003 306.742 584.003 312.787zM666.758 536.518c-6.51 11.272-22.54 20.502-35.57 20.502L413.901 557.02c-13.032 0-29.402-9.022-36.35-20l-96.395-169.43 352.547-0.13 2.14 0 119.57 0L666.758 536.518zM602.703 485.539l-149.45 0c-9.09 0-16.37 9.38-16.37 20.902 0 11.607 7.302 20.947 16.37 20.947l149.45 0c9.005 0 16.35-9.34 16.35-20.947C619.073 494.919 611.773 485.539 602.703 485.539zM652.888 405.846 396.209 405.846c-9.087 0-16.37 9.38-16.37 20.902 0 11.612 7.305 20.947 16.37 20.947l256.679 0c9 0 16.345-9.335 16.345-20.947C669.258 415.226 661.928 405.846 652.888 405.846z"  horiz-adv-x="1026" />

    
    <glyph glyph-name="wangyiyunyinlezizhi-copy" unicode="&#58919;" d="M812.688 452.365c-53.338 53.338-122.877 84.571-197.517 89.152-4.864 13.476-9.237 28.122-12.955 44.445-5.406 23.756-9.41 51.082-11.482 83.564-0.506 7.925-0.895 16.16-1.163 24.724-0.258 8.306-0.402 16.927-0.421 25.875-0.031 0.003-0.059 0.006-0.090 0.013 0.023 0.226 0.061 0.45 0.087 0.678 5.899 51.69 50.605 91.766 104.187 90.233 37.757-1.079 70.706-23.047 87.364-54.811l50.365 9.678c-19.821 49.354-64.973 85.924-119.381 93.387-87.442 11.994-163.263-51.161-172.043-134.026-0.073-0.693-0.119-2.478-0.146-3.174l-0.001-6.676c0.018-5.903 0.16-15.092 0.539-25.67 0.183-5.153 0.419-10.23 0.693-15.251 2.775-50.809 10.176-94.917 22.415-133.85 0.030-0.090 0.057-0.177 0.086-0.268-27.769-2.932-54.72-9.59-80.274-19.713l-0.018-0.002-0.034-0.017c-38.362-15.204-73.57-38.233-103.627-68.291l9.538 8.534c-40.682-39.699-65.986-95.088-65.986-156.285 0-29.763 5.99-58.148 16.817-84.031 25.825-61.738 79.205-109.18 144.684-126.881 17.221-5.375 35.525-8.272 54.494-8.272 10.11 0 20.029 0.837 29.698 2.419 86.973 14.235 153.556 89.901 153.556 180.838 0 20.773-3.481 40.749-9.879 59.378-13.142 54.395-34.294 91.456-54.922 127.561-6.288 11.010-12.514 21.913-18.499 33.241 10.198-1.718 20.194-4.039 29.951-6.925 106.276-31.444 184.048-129.946 184.048-246.284 0-59.882-20.607-115.040-55.097-158.762-24.484-27.394-53.099-51.013-84.861-69.881-53.554-31.809-116.031-50.11-182.708-50.11-27.403 0-54.094 3.1-79.754 8.944-159.635 36.365-279.132 179.455-279.132 349.94 0 177.598 129.68 325.454 299.316 353.913l-6.546 49.329c-83.813-13.561-161.087-52.819-222.371-113.935-76.53-76.319-119.827-180.26-120.076-288.341-0.253-109.839 42.541-213.123 120.404-290.601 77.532-77.148 183.19-120.052 292.559-118.903 72.921 0.765 142.794 20.532 203.967 56.93 27.007 14.218 52.015 32.573 74.211 54.769 8.033 8.033 15.546 16.446 22.559 25.174 43.538 54.177 67.203 121.031 67.203 191.533 0 31.259-4.661 61.796-13.632 90.835-14.522 47.012-40.351 90.090-76.132 125.871zM403.266 473.834c0.771 0.633 1.557 1.249 2.338 1.872-0.835-0.662-1.665-1.331-2.491-2.006l0.151 0.134zM664.427 314.149c3.326-14.137 6.031-29.586 7.954-46.765-0.627-65.317-48.367-119.567-110.8-130.331-6.657-0.801-13.428-1.225-20.295-1.225-14.779 0-29.116 1.916-42.786 5.5-72.415 18.99-125.996 84.994-125.996 163.282 0 22.391 4.393 43.772 12.346 63.341 10.096 24.843 25.936 46.761 45.873 64.083 3.514 2.963 7.102 5.837 10.773 8.609 39.492 29.837 87.838 48.543 140.336 51.408 4.418-9.674 8.997-18.804 13.654-27.585 4.962-9.356 10.011-18.32 15.036-27.143 1.209-2.122 2.416-4.235 3.62-6.343 19.814-34.679 38.772-67.897 50.285-116.832z"  horiz-adv-x="1024" />

    
    <glyph glyph-name="youxiang" unicode="&#59015;" d="M967.04512 578.06848c-24.94976 58.96704-60.62592 111.91808-106.112 157.37344-45.45536 45.45536-98.4064 81.16224-157.37344 106.112-61.07136 25.84064-125.90592 38.90688-192.75264 38.90688-66.82112 0-131.68128-13.09696-192.75264-38.90688-58.96704-24.94976-111.91808-60.62592-157.37344-106.112-45.45536-45.45536-81.16224-98.4064-106.112-157.37344C28.73344 516.99712 15.63136 452.16256 15.63136 385.34656c0-66.816 13.09696-131.68128 38.9376-192.72192 24.94976-58.96704 60.62592-111.88736 106.112-157.37344 45.45536-45.45536 98.4064-81.16224 157.37344-106.112 61.07136-25.84064 125.90592-38.90688 192.75264-38.90688 66.82112 0 131.68128 13.09696 192.75264 38.90688 58.96704 24.94976 111.91808 60.62592 157.37344 106.112 45.45536 45.45536 81.16224 98.4064 106.112 157.37344 25.84064 61.07136 38.90688 125.90592 38.90688 192.72192S992.85504 516.99712 967.04512 578.06848zM510.83776-56.46336c-243.63008 0-441.83552 198.17472-441.83552 441.8048s198.20544 441.8048 441.83552 441.8048c243.59936-0.03072 441.8048-198.20544 441.8048-441.8048S754.43712-56.46336 510.83776-56.46336zM763.86816 511.7952c0 4.8896-1.26976 8.51456-1.26976 12.13952l-154.1632-138.58304 153.07776-138.58304c1.26976 3.62496 1.26976 7.2448 1.26976 12.13952L762.78272 511.7952 763.86816 511.7952zM510.79168 338.42688l233.87136 216.84224c-8.51456 5.98016-19.20512 9.6-34.96448 9.6L311.87968 564.86912c-14.49472 0-25.36448-3.62496-34.96448-10.86976L510.79168 338.42688zM583.07072 359.98208l-59.0592-59.0592c-3.62496-3.62496-8.51456-4.8896-13.22496-4.8896-4.7104 0-9.6 1.26976-13.22496 4.8896l0 0 0 0-59.0592 59.0592-160.32256-144.5632c8.51456-5.98016 19.20512-9.6 33.69472-9.6l397.63968 0c14.49472 0 25.36448 3.62496 33.69472 9.6L583.07072 359.98208zM260.0704 523.9296c-1.26976-3.62496-2.3552-7.2448-2.3552-12.13952l0-253.07648c0-4.8896 1.26976-8.51456 1.26976-12.13952l154.1632 138.58304L260.0704 523.9296z"  horiz-adv-x="1024" />

    
    <glyph glyph-name="weixin7" unicode="&#59016;" d="M863.206 341.508c0 86.172-89.498 156.025-200.098 156.025-110.497 0-200.098-69.853-200.098-156.025 0-85.652 88.563-155.089 198.228-155.92 47.712-80.248 91.473-64.863 91.473-64.863s-34.095 22.66-37.629 70.164c85.342 17.878 148.125 78.479 148.125 150.619zM596.582 365.831c-12.89 0-23.388 10.499-23.388 23.388 0 12.89 10.499 23.388 23.388 23.388 12.89 0 23.388-10.498 23.388-23.388 0-12.889-10.498-23.388-23.388-23.388zM724.748 365.831c-12.993 0-23.388 10.499-23.388 23.388 0 12.89 10.395 23.388 23.388 23.388 12.89 0 23.284-10.498 23.284-23.388 0-12.889-10.394-23.388-23.284-23.388zM638.786 524.767c-33.576 73.699-124.529 126.608-231.595 126.608-135.652 0-245.627-84.925-245.627-189.599 0-89.706 80.768-164.86 189.184-184.506-2.079-62.056-46.568-91.681-46.568-91.681s56.131-19.854 116.317 86.588c0 0-0.312 0.103-0.831 0.208 11.329 0.52 22.557 1.56 33.47 3.118-14.552 23.077-22.764 48.959-22.764 76.402-0.002 92.096 92.097 167.354 208.414 172.863zM333.908 493.478c-17.152 0-30.977 13.825-30.977 30.871 0 17.152 13.825 30.977 30.977 30.977 17.047 0 30.871-13.825 30.871-30.977 0.001-17.045-13.823-30.871-30.871-30.871zM458.853 524.351c0 17.152 13.825 30.977 30.977 30.977 17.047 0 30.871-13.825 30.871-30.977 0-17.047-13.824-30.871-30.871-30.871-17.152-0.001-30.977 13.825-30.977 30.871zM512 831.949c60.496 0 119.154-11.837 174.346-35.181 53.336-22.559 101.246-54.865 142.401-96.020s73.461-89.067 96.020-142.401c23.345-55.192 35.181-113.851 35.181-174.346 0-60.495-11.837-119.154-35.181-174.346-22.559-53.335-54.865-101.246-96.020-142.401s-89.067-73.461-142.401-96.020c-55.192-23.345-113.851-35.181-174.346-35.181s-119.154 11.837-174.346 35.181c-53.336 22.559-101.246 54.865-142.401 96.020s-73.461 89.067-96.020 142.401c-23.345 55.192-35.181 113.851-35.181 174.346 0 60.496 11.837 119.154 35.181 174.346 22.559 53.336 54.865 101.246 96.020 142.401s89.067 73.461 142.401 96.020c55.192 23.345 113.85 35.181 174.346 35.181M512 883.115c-275.653 0-499.115-223.461-499.115-499.115s223.461-499.115 499.115-499.115 499.115 223.461 499.115 499.115-223.461 499.115-499.115 499.115z"  horiz-adv-x="1024" />

    
    <glyph glyph-name="weibo3" unicode="&#58906;" d="M512 831.949c60.496 0 119.154-11.837 174.346-35.181 53.336-22.559 101.246-54.865 142.401-96.020s73.461-89.067 96.020-142.401c23.345-55.192 35.181-113.851 35.181-174.346 0-60.495-11.837-119.154-35.181-174.346-22.559-53.335-54.865-101.246-96.020-142.401s-89.067-73.461-142.401-96.020c-55.192-23.345-113.851-35.181-174.346-35.181s-119.154 11.837-174.346 35.181c-53.336 22.559-101.246 54.865-142.401 96.020s-73.461 89.067-96.020 142.401c-23.345 55.192-35.181 113.851-35.181 174.346 0 60.496 11.837 119.154 35.181 174.346 22.559 53.336 54.865 101.246 96.020 142.401s89.067 73.461 142.401 96.020c55.192 23.345 113.85 35.181 174.346 35.181M512 883.115c-275.653 0-499.115-223.461-499.115-499.115s223.461-499.115 499.115-499.115 499.115 223.461 499.115 499.115-223.461 499.115-499.115 499.115zM452.817 195.391c-89.671-4.199-162.156 40.773-162.156 100.603 0 59.897 72.484 107.944 162.156 112.085 89.719 4.131 162.357-32.841 162.357-92.628 0-59.836-72.636-115.996-162.357-120.060M643.749 389.788c-21.31 4.131-10.949 15.599-10.949 15.599s20.835 34.351-4.131 59.317c-30.941 30.93-106.112-3.94-106.112-3.94-28.713-8.906-21.114 4.075-17.053 26.151 0 26.012-8.906 70.062-85.405 44.045-76.4-26.146-142.008-117.786-142.008-117.786-45.632-60.871-39.58-107.924-39.58-107.924 11.381-103.894 121.763-132.406 207.615-139.157 90.333-7.083 212.228 31.136 249.203 109.646 36.961 78.662-30.215 109.782-51.578 114.048M465.351 295.341c-5.715-4.265-12.744-3.68-15.739 1.445-3.152 4.976-1.972 12.97 3.795 17.169 6.679 4.979 13.638 3.545 16.646-1.445 3.009-5.105 0.853-12.772-4.702-17.169M412.175 250.059c-16.843-1.981-30.413 7.725-30.413 21.823 0 14.016 12.068 28.709 28.915 30.465 19.332 1.843 31.918-9.31 31.918-23.392 0.001-14.020-13.65-26.996-30.42-28.896M434.924 368.613c-90.176-10.551-79.759-95.027-79.759-95.027s-0.925-26.755 24.18-40.374c52.768-28.588 107.090-11.285 134.561 24.175 27.456 35.454 11.337 121.72-78.982 111.226M687.654 426.357c7.27 0 13.441 5.383 14.491 12.384 0.116 0.461 0.183 0.99 0.183 1.535 0 0.015-0 0.031-0 0.046 11.016 99.026-81.136 81.982-81.136 81.982-8.191 0-14.741-6.618-14.741-14.875 0-8.129 6.55-14.75 14.741-14.75 66.198 14.615 51.578-51.574 51.578-51.574-0.001-8.19 6.679-14.749 14.884-14.749M676.915 599.217c-31.866 7.462-64.629 1.022-73.827-0.734-0.701-0.073-1.373-0.735-2.016-0.873-0.322-0.057-0.519-0.385-0.519-0.385-9.059-2.557-15.667-10.945-15.667-20.845 0-11.794 9.563-21.497 21.491-21.497 0 0 11.607 1.555 19.462 4.636 7.798 3.133 73.799 2.336 106.572-52.715 17.893-40.172 7.869-67.067 6.626-71.39 0 0-4.26-10.433-4.26-20.716 0-11.866 9.563-19.322 21.424-19.322 9.899 0 18.229 1.362 20.652 18.114h0.124c35.198 117.296-43.055 172.411-100.063 185.726z"  horiz-adv-x="1024" />

    
    <glyph glyph-name="twitter5" unicode="&#59018;" d="M749.018182 558.761256a188.495048 188.495048 0 0 0-59.11026-22.243607c-16.971533 17.812691-41.164538 28.935006-67.949578 28.935006-51.40067 0-93.074815-41.031509-93.074815-91.611487 0-7.15598 0.796132-14.157441 2.39249-20.89182-77.367065 3.833305-145.95928 40.323381-191.864796 95.754855-8.020674-13.558807-12.606109-29.266557-12.606109-46.081525 0-31.770588 16.416901-59.81941 41.408085-76.258825a94.081749 94.081749 0 0 0-42.162262 11.475356c-0.023536-0.399089-0.023536-0.754177-0.023536-1.151219 0-44.399209 32.103162-81.44187 74.686003-89.862658a95.119381 95.119381 0 0 0-24.527626-3.189645 94.850252 94.850252 0 0 0-17.503652 1.64036c11.831466-36.424584 46.215578-62.877049 86.937024-63.62918-31.858592-24.592095-71.982428-39.21514-115.605971-39.21514a198.24511 198.24511 0 0 0-22.200628 1.240247c41.209564-25.967418 90.128717-41.143049 142.702096-41.143049 171.236989 0 264.866437 139.601478 264.866437 260.701581 0 3.966335-0.088004 7.909134-0.265037 11.831466a188.846042 188.846042 0 0 1 46.437636 47.411823c-16.706497-7.267521-34.629705-12.186554-53.460586-14.400988 19.208481 11.342326 33.965579 29.288047 40.920991 50.690495M512 883.114528c-275.656177 0-499.114528-223.459375-499.114528-499.114528 0-275.656177 223.458351-499.114528 499.114528-499.114528s499.114528 223.458351 499.114528 499.114528c0 275.655154-223.458351 499.114528-499.114528 499.114528m0-952.854636c-250.598478 0-453.740108 203.14163-453.740108 453.740108 0 250.576989 203.14163 453.739085 453.740108 453.739085S965.739085 634.575965 965.739085 384c0-250.598478-203.140607-453.740108-453.739085-453.740108z"  horiz-adv-x="1024" />

    
    <glyph glyph-name="home" unicode="&#58926;" d="M512 831.949c60.496 0 119.154-11.837 174.346-35.181 53.336-22.559 101.246-54.865 142.401-96.020s73.461-89.067 96.020-142.401c23.345-55.192 35.181-113.851 35.181-174.346 0-60.495-11.837-119.154-35.181-174.346-22.559-53.335-54.865-101.246-96.020-142.401s-89.067-73.461-142.401-96.020c-55.192-23.345-113.851-35.181-174.346-35.181s-119.154 11.837-174.346 35.181c-53.336 22.559-101.246 54.865-142.401 96.020s-73.461 89.067-96.020 142.401c-23.345 55.192-35.181 113.851-35.181 174.346 0 60.496 11.837 119.154 35.181 174.346 22.559 53.336 54.865 101.246 96.020 142.401s89.067 73.461 142.401 96.020c55.192 23.345 113.85 35.181 174.346 35.181M512 883.115c-275.653 0-499.115-223.461-499.115-499.115s223.461-499.115 499.115-499.115 499.115 223.461 499.115 499.115-223.461 499.115-499.115 499.115zM786.311 355.326c-9.081-9.135-23.858-9.135-32.992 0l-241.155 241.909-201.662-202.307h14.669c25.791 0 46.693-21.064 46.693-46.964v-24.985h0.054l0.161-141.319c1.558-15.368 7.469-19.452 24.502-20.634 19.773 1.774 21.977 8.705 22.138 34.819l-0.054 58.57c0.216 25.685 21.011 46.533 46.641 46.533h23.32v0.591l46.748 0.107v-0.698h23.32c25.791 0 46.749-21.011 46.749-46.964v-24.985h0.053l0.053-28.48 0.053 6.824c0-36.539 0-44.545 22.998-46.318 23.482 1.934 23.697 10.156 23.697 46.318l-0.322-46.641h0.377l-0.215 188.336c0 12.95 10.478 23.481 23.373 23.481 12.897 0 23.32-10.531 23.32-23.481l0.162-163.35h-0.162v-24.933c0-25.953-20.902-47.016-46.693-47.016h-46.694c-25.522 0-46.049 20.579-46.586 46.103l-0.054 59.913-0.161 5.964c0-0.591 0.161-1.020 0.161-1.665l-0.053 30.573h-7.254l6.555-0.053 0.591-28.855c-1.182 22.999-6.502 27.942-28.694 28.855l-37.238-0.053c-20.903-0.966-26.115-5.749-27.297-26.006l0.053-42.826h-0.161v-24.933c0-25.953-20.903-47.016-46.749-47.016h-46.694c-25.469 0-45.941 20.525-46.479 46.049l-0.216 188.819-12.089-0.054 11.446-0.052 0.161-31.541c-0.537 25.738-4.46 30.682-28.211 31.595l-40.622-0.106c-6.555-0.485-13.219 1.503-18.163 6.555-9.135 9.134-9.135 24.019 0 33.207l256.094 256.899c0.591 0.698 0.86 1.612 1.505 2.256 9.134 9.188 23.911 9.188 33.046 0l0.377-0.376 257.599-258.405c9.137-9.189 9.137-24.073 0.002-33.262zM605.605 160.543l11.499 0.053-11.499 0.053v-0.106zM465.414 228.623l0.537 25.899h-0.591l0.054-25.899zM372.079 160.543l11.499 0.053-11.499 0.053v-0.106zM324.686 316.96c0.107-4.782 0.107-10.21 0.107-16.55l-0.107 16.55z"  horiz-adv-x="1024" />

    
    <glyph glyph-name="weixin9" unicode="&#59314;" d="M958.828 281.454c0 120.659-111.006 218.796-250.973 223.622-16.090 141.573-152.836 252.582-318.542 252.582-176.967 0-320.15-123.879-320.15-278.321 0-91.7 51.483-172.142 130.311-223.622 9.653-4.827-28.959-85.266-19.305-90.094 16.090-9.653 80.441 59.525 98.137 53.090 35.394-11.263 72.396-17.696 112.617-17.696 19.305 0 38.61 1.609 57.917 4.827 37.003-85.266 133.531-146.399 246.146-146.399 30.567 0 61.134 4.827 88.485 12.87 8.043 3.219 70.787-51.483 78.831-48.265 14.478 4.827-25.741 69.178-12.87 77.222 65.962 40.22 109.398 106.181 109.398 180.186zM598.457 337.764c-14.478 0-27.348 12.87-27.348 27.348s11.263 27.348 27.348 27.348c14.478 0 27.348-12.87 27.348-27.348 0-14.478-11.263-27.348-27.348-27.348zM432.75 281.454c0-6.434 0-14.478 1.609-22.523-14.478-1.609-28.959-3.219-43.437-3.219-37.003 0-72.396 6.434-104.571 17.696-3.219 1.609-14.478 4.827-20.914 0-14.478-9.653-32.174-32.174-32.174-32.174s6.434 16.090 9.653 38.61c1.609 9.653-14.478 17.696-17.696 19.305-59.525 40.22-98.137 109.398-98.137 178.578 0 123.879 117.441 223.622 263.841 223.622 136.749 0 247.756-86.874 262.234-199.489-125.486-17.696-220.405-109.398-220.405-220.405zM765.771 337.764c-14.478 0-27.348 12.87-27.348 27.348s11.263 27.348 27.348 27.348c14.478 0 27.348-12.87 27.348-27.348 0-14.478-11.263-27.348-27.348-27.348zM501.93 535.644c22.523 0 41.828 19.305 41.828 41.828s-19.305 41.828-41.828 41.828c-22.523 0-41.828-19.305-41.828-41.828 0-24.132 19.305-41.828 41.828-41.828zM279.915 535.644c22.523 0 41.828 19.305 41.828 41.828s-19.305 41.828-41.828 41.828c-22.523 0-41.828-19.305-41.828-41.828 0-24.132 17.696-41.828 41.828-41.828z"  horiz-adv-x="1024" />

    
    <glyph glyph-name="zhifubao" unicode="&#59315;" d="M600.958 298.38s22.523 32.174 45.045 96.527c24.132 64.353 27.348 99.747 27.348 99.747l-183.403 1.609v62.742l222.015 1.609v45.045h-222.015v101.356h-109.398v-99.747h-210.752v-45.045l207.534 1.609v-67.569h-165.705v-35.394h342.674s-3.219-28.959-16.090-64.353c-14.478-35.394-27.348-65.962-27.348-65.962s-160.88 56.308-246.146 56.308c-85.266 0-188.23-35.394-197.884-133.531-9.653-98.137 48.265-152.836 130.311-172.142 80.441-19.305 156.052 0 222.015 32.174 65.962 32.174 130.311 104.571 130.311 104.571l341.065-165.705s20.914 32.174 37.003 62.742c16.090 30.567 28.959 64.353 28.959 64.353l-355.546 119.053zM250.24 135.891c-120.659 0-144.794 59.525-144.794 101.356s25.741 88.485 127.095 94.919c101.356 6.434 239.712-72.396 239.712-72.396s-101.356-123.879-222.015-123.879z"  horiz-adv-x="1024" />

    
    <glyph glyph-name="yinxiangbiji" unicode="&#59316;" d="M703.028 422.138c28.959-1.609 53.090-14.478 53.090-14.478v12.87c0 27.348-22.523 49.872-49.872 49.872s-48.265-22.523-48.265-49.872c0 0 14.478 3.219 45.045 1.609zM321.743 729.416c1.609 35.394 3.219 69.178 3.219 69.178l-136.749-139.964s45.045 6.434 72.396 8.043c28.959 1.609 57.917 1.609 57.917 1.609s1.609 25.741 3.219 61.134zM588.804 759.984s204.317 9.653 252.582-38.61c32.174-33.786 22.523-53.090 25.741-109.398s17.696-191.446 9.653-299.236c-9.653-139.964-43.437-276.714-80.441-316.933-38.61-40.22-194.663-46.657-246.146-14.478-38.61 24.132-37.003 143.184-8.043 178.578 28.959 37.003 112.617 22.523 112.617 22.523l-4.827-56.308s-37.003 6.434-51.483-8.043c-14.478-14.478-6.434-54.7 6.434-62.742s91.7-12.87 122.268 6.434c30.567 17.696 12.87 114.225 3.219 141.573-8.043 27.348-48.265 35.394-48.265 35.394s-78.831 1.609-117.441 20.914c-38.61 19.305-41.828 111.006-41.828 111.006s-3.219-144.794-43.437-156.052c-40.22-11.263-234.884 33.786-250.973 54.7-27.348 37.003-65.962 247.756-65.962 304.063s35.394 59.525 56.308 64.353c20.914 4.827 107.79-3.219 123.879 9.653 14.478 12.87 1.609 122.268 14.478 143.184 14.478 20.914 27.348 45.045 123.879 40.22 98.137-6.434 107.79-70.787 107.79-70.787z"  horiz-adv-x="1024" />

    
    <glyph glyph-name="pengyouquan" unicode="&#59339;" d="M666.221 797.567s-58.347 24.025-147.58 24.025-147.58-27.457-147.58-27.457l295.162-296.876v300.308zM825.813 692.889c-63.493 61.778-123.555 84.086-123.555 84.086l-1.716-417.002 212.788 212.788s-25.741 58.347-87.519 120.125zM925.345 528.146l-296.876-293.444v-1.716h300.308s24.025 58.347 24.025 147.58-27.457 147.58-27.457 147.58zM703.973-15.84s58.347 25.741 120.125 87.519c61.778 63.493 84.086 123.555 84.086 123.555l-417.002 1.716 212.788-212.788zM369.344 267.309v-300.308s58.347-24.025 147.58-24.025c89.235 0 147.58 27.457 147.58 27.457l-293.444 296.876h-1.716zM213.185 71.679c63.493-61.778 123.555-84.086 123.555-84.086l1.716 417.002-212.788-212.788s25.741-58.347 87.519-120.125zM110.219 529.866s-24.025-58.347-24.025-147.58 27.457-147.58 27.457-147.58l296.876 295.162h-300.308zM333.308 780.406s-58.347-24.025-120.125-87.519c-61.778-63.493-84.086-123.555-84.086-123.555l417.002-1.716-212.788 212.788z"  horiz-adv-x="1024" />

    
    <glyph glyph-name="gongsiyouxiang" unicode="&#58907;" d="M512-128C229.2224-128 0 101.2224 0 384S229.2224 896 512 896s512-229.2224 512-512-229.2224-512-512-512z m0 998.4C243.3792 870.4 25.6 652.6208 25.6 384s217.7792-486.4 486.4-486.4 486.4 217.7792 486.4 486.4S780.6208 870.4 512 870.4zM512-128C229.2224-128 0 101.2224 0 384S229.2224 896 512 896s512-229.2224 512-512-229.2224-512-512-512z m0 998.4C243.3792 870.4 25.6 652.6208 25.6 384s217.7792-486.4 486.4-486.4 486.4 217.7792 486.4 486.4S780.6208 870.4 512 870.4zM743.9104 563.2H280.0896C252.672 563.2 230.4 541.6704 230.4 515.2v-288C230.4 200.7296 252.672 179.2 280.0896 179.2h463.8208c27.392 0 49.6896 21.5296 49.6896 48v288C793.6 541.6704 771.2512 563.2 743.9104 563.2zM263.552 227.2v281.856l146.304-141.312h-0.1536l-146.176-141.2096v0.6656h0.0256z m23.9104 303.9744H736.512l-224.4864-216.8832-224.5632 216.8832z m145.6896-185.984l78.8224-76.16 79.2064 76.4928 139.136-134.3744H294.4512l138.7008 134.0416z m181.9648 22.5536h-0.9472l146.304 141.312V227.328l-145.3568 140.416z"  horiz-adv-x="1024" />

    
    <glyph glyph-name="gitHub" unicode="&#59419;" d="M592.266 187.65200000000004c99.77 11.782 205.884 48.058 205.884 220.384 0 48.98-17.248 88.896-45.34 119.738 4.532 11.78 19.03 56.228-5.468 117.894 0 0-36.278 11.796-121.518-45.338-36.278 9.966-76.18 16.326-113.364 16.326-38.106 0-78.022-6.36-113.394-16.326-86.164 57.134-122.44 45.338-122.44 45.338-24.482-61.666-9.966-106.114-5.436-117.894-28.122-30.84-45.354-70.758-45.354-119.738 0-172.326 106.114-208.602 205.884-220.384-12.688-10.904-24.482-31.746-29.014-60.774-25.404-10.876-91.616-31.746-131.516 37.184 0 0-23.59 42.62-68.024 45.338 0 0-44.448 0.906-3.626-27.184 0 0 29.92-13.624 49.886-65.306 0 0 27.2-86.178 152.358-58.96v-77.086c0-11.812-9.06-25.404-31.73-21.78C192.278 18.04600000000005 64.4 186.74800000000005 64.4 384.46c0 247.614 200.432 448.044 448.06 448.044 246.694 0 448.046-200.432 447.14-448.044 0-197.712-127.892-365.508-305.656-425.376-22.684-4.532-31.746 9.06-31.746 21.78V105.10000000000002c0.002 41.746-13.622 68.93-29.932 82.552zM1024 383.53999999999996C1024 666.54 794.526 896 512.46 896 229.46 896 0 666.54 0 383.53999999999996 0 101.47400000000005 229.46-128 512.46-128 794.526-128 1024 101.47400000000005 1024 383.53999999999996z"  horiz-adv-x="1024" />

    
    <glyph glyph-name="dianying5" unicode="&#58938;" d="M772.645 58.279H62.446V514.007h710.198v-455.728z m-700.199 10h690.198V504.007H72.446v-435.728zM192.037 537.383c-52.363 0-94.963 42.601-94.963 94.964s42.601 94.963 94.963 94.963c52.363 0 94.964-42.601 94.964-94.963 0-52.363-42.601-94.964-94.964-94.964z m0 179.928c-46.849 0-84.963-38.114-84.963-84.963s38.114-84.964 84.963-84.964 84.964 38.115 84.964 84.964-38.115 84.963-84.964 84.963zM576.112 537.383c-81.977 0-148.669 66.692-148.669 148.669 0 81.976 66.693 148.668 148.669 148.668 81.976 0 148.668-66.692 148.668-148.668 0-81.976-66.692-148.669-148.668-148.669z m0 287.338c-76.462 0-138.669-62.207-138.669-138.668 0-76.462 62.207-138.669 138.669-138.669 76.462 0 138.668 62.207 138.668 138.669 0 76.461-62.206 138.668-138.668 138.668zM988.867 169.54l-154.015 88.92 154.015 88.921z"  horiz-adv-x="1024" />

    
    <glyph glyph-name="comment" unicode="&#58882;" d="M322.09-8.448c-3.705 0-7.436 0.792-10.935 2.402a26.158 26.158 0 0 0-15.228 23.76V129.24c0 13.847-11.268 25.115-25.14 25.115h-128.03c-42.72 0-77.467 34.747-77.467 77.44V698.995c0 42.707 34.747 77.454 77.466 77.454h738.512c42.694 0 77.441-34.747 77.441-77.454v-467.2c0-42.694-34.747-77.441-77.44-77.441H530.982a25.15 25.15 0 0 1-16.402-6.08L339.105-2.138a26.007 26.007 0 0 0-17.015-6.311zM142.756 724.123c-13.873 0-25.14-11.267-25.14-25.128v-467.2c0-13.848 11.267-25.116 25.14-25.116h128.03c42.718 0 77.466-34.747 77.466-77.44v-54.625l132.321 113.415c14.078 12.034 31.963 18.65 50.41 18.65h350.284c13.848 0 25.115 11.268 25.115 25.115V698.995c0 13.86-11.267 25.128-25.115 25.128h-738.51z"  horiz-adv-x="1024" />

    
    <glyph glyph-name="qzone" unicode="&#58883;" d="M223.628-86.688a30.701 30.701 0 0 0-30.261 35.888l53 309L21.863 477.038A30.699 30.699 0 0 0 38.878 529.4l310.255 45.082L487.883 855.62a30.699 30.699 0 0 0 55.058 0l138.75-281.138L991.946 529.4a30.699 30.699 0 0 0 17.013-52.363l-149.012-145.25c-12.142-11.836-31.579-11.585-43.412 0.554-11.835 12.14-11.586 31.578 0.555 43.412l104.47 101.832-264.67 38.46a30.7 30.7 0 0 0-23.116 16.793L515.411 772.669 397.047 532.838a30.696 30.696 0 0 0-23.115-16.794l-264.67-38.459L300.78 290.903a30.698 30.698 0 0 0 8.83-27.173l-45.212-263.6 236.727 124.455a30.69 30.69 0 0 0 28.571 0L766.424 0.13l-20.63 120.27c-2.866 16.711 8.358 32.581 25.069 35.448 16.706 2.863 32.58-8.357 35.447-25.068L837.455-50.8a30.7 30.7 0 0 0-44.543-32.362L515.41 62.73l-277.5-145.89a30.663 30.663 0 0 0-14.283-3.527zM752.365 443.402c-222.003 48.866-445.553 18.437-445.553 18.437C494.465 444.733 588.784 408.3 588.784 408.3L320.405 200.386c247.5-53.135 451.287 9.952 451.287 9.952C505.08 233.93 471.718 254.59 471.718 254.59l280.647 188.812z"  horiz-adv-x="1034" />

    
    <glyph glyph-name="category" unicode="&#58884;" d="M196.277 670.084c0-12.675-10.264-22.951-22.952-22.951H87.254c-12.687 0-22.954 10.277-22.954 22.95v86.07c0 12.675 10.267 22.952 22.954 22.952h86.071c12.688 0 22.952-10.276 22.952-22.951v-86.07zM959.45 670.084c0-12.675-10.265-22.951-22.951-22.951H311.04c-12.687 0-22.953 10.276-22.953 22.95v86.07c0 12.675 10.266 22.95 22.953 22.95h625.458c12.685 0 22.951-10.275 22.951-22.95v-86.07zM196.277 363.106c0-12.675-10.264-22.952-22.952-22.952H87.254c-12.687 0-22.954 10.277-22.954 22.952v86.07c0 12.674 10.266 22.951 22.953 22.951h86.071c12.688 0 22.952-10.276 22.952-22.952v-86.069zM959.45 363.106c0-12.675-10.265-22.952-22.951-22.952H311.04c-12.687 0-22.953 10.277-22.953 22.952v86.07c0 12.674 10.266 22.951 22.953 22.951h625.458c12.685 0 22.951-10.276 22.951-22.952v-86.069zM196.277 56.129c0-12.675-10.264-22.952-22.952-22.952H87.254c-12.687 0-22.954 10.277-22.954 22.952v86.068c0 12.676 10.266 22.953 22.953 22.953h86.071c12.688 0 22.952-10.277 22.952-22.953v-86.068zM959.45 56.129c0-12.675-10.265-22.952-22.951-22.952H311.04c-12.687 0-22.953 10.277-22.953 22.952v86.068c0 12.676 10.266 22.953 22.953 22.953h625.458c12.685 0 22.951-10.277 22.951-22.953v-86.068z"  horiz-adv-x="1024" />

    
    <glyph glyph-name="qq" unicode="&#58885;" d="M110.08 87.591c22.43-7.581 46.927-2.973 68.962 13.135 0.572-0.886 1.123-1.752 1.694-2.619-37.632-22.961-58.624-55.02-58.624-90.762 0-73.511 86.469-126.858 205.627-126.858 63.193 0 121.758 16.404 159.39 44.288 12.229-0.689 23.138-0.689 35.505-0.02 37.632-27.864 96.177-44.268 159.37-44.268 119.138 0 205.646 53.347 205.646 126.858 0 35.663-20.913 67.624-58.387 90.605a99.888 99.888 0 0 1 1.713 2.638c21.977-15.99 46.316-20.618 68.766-13.016 67.17 22.823 70.833 140.012 40.192 238.69-16.266 52.342-46.16 93.361-71.07 120.655 0.295 3.78 0.453 7.542 0.453 11.343 0 28.947-7.582 57.029-22.528 83.672v0.374c0 190.327-153.265 345.187-341.642 345.187-188.396 0-341.661-154.86-341.661-345.187v-1.22c-14.632-26.388-22.056-54.213-22.056-82.807 0-3.446 0.118-6.931 0.394-10.476-25.226-27.451-55.473-68.785-71.857-121.54-30.661-98.718-26.998-215.868 40.113-238.672z m7.956 223.725c15.242 49.132 45.45 86.96 68.096 110.02a25.196 25.196 0 0 1 6.892 21.564c-0.827 5.317-1.26 10.397-1.26 15.34 0 21.681 6.301 43.047 18.688 63.429a25.488 25.488 0 0 1 3.623 14.828 79.882 79.882 0 0 0-0.236 5.79c0 162.56 130.678 294.813 291.288 294.813s291.289-132.253 291.289-294.813c0-1.753-0.079-3.446-0.197-5.16a25.277 25.277 0 0 1 3.683-14.828c12.642-20.559 19.042-42.102 19.042-64.04 0-5.159-0.453-10.377-1.359-15.93-1.339-7.917 1.221-15.951 6.833-21.721 22.37-22.902 52.264-60.475 67.407-109.292 26.959-86.784 17.507-167.286-8.211-176.03-13.332-4.51-29.125 9.708-38.952 21.445-5.336 6.42-13.41 9.807-21.937 8.881a25.137 25.137 0 0 1-19.594-13.233 324.714 324.714 0 0 0-31.252-47.97 25.242 25.242 0 0 1-4.549-21.918 25.215 25.215 0 0 1 14.69-16.876c35.152-14.651 55.277-35.88 55.277-58.25 0-42.181-69.651-76.485-155.274-76.485-55.512 0-107.185 14.828-134.813 38.715a25.174 25.174 0 0 1-16.463 6.124c-0.61 0-1.26-0.02-1.87-0.078-17.389-1.3-30.957-1.28-47.853 0.02-6.932 0.61-13.351-1.675-18.393-6.046-27.667-23.907-79.34-38.735-134.872-38.735-85.603 0-155.254 34.304-155.254 76.485 0 22.45 20.243 43.737 55.512 58.368 7.286 3.033 12.721 9.236 14.71 16.876a25.113 25.113 0 0 1-4.51 21.918c-11.874 15.183-22.37 31.35-31.231 48.049a25.163 25.163 0 0 1-19.633 13.253c-8.468 0.886-16.581-2.462-21.957-8.881-9.886-11.835-25.522-26.349-39.11-21.622-25.776 8.704-35.19 89.186-8.25 175.99z"  horiz-adv-x="1024" />

    
    <glyph glyph-name="mail" unicode="&#58886;" d="M885.514 688.142h-747.03c-41.378 0-75.053-33.675-75.053-75.135v-458.074c0-41.485 33.675-75.075 75.053-75.075h747.03c41.55 0 75.054 33.59 75.054 75.075V613.007c-0.001 41.46-33.504 75.135-75.054 75.135z m-17.96-53.8L569.653 370.2c-26-23.193-45.256-34.715-57.654-34.715-12.395 0-31.652 11.522-57.653 34.715L156.444 634.343h711.11z m-748.296-462.68V585.54l232.658-204.068-232.658-209.81z m39.125-38.006l233.532 207.39 38.257-33.59c22.233-19.422 49.616-29.4 81.826-29.4 32.38 0 59.592 9.978 81.911 29.4l38.254 33.59 233.54-207.39h-707.32z m746.388 38.007l-232.66 209.81 232.66 204.067v-413.877z m0 0"  horiz-adv-x="1024" />

    
    <glyph glyph-name="single" unicode="&#58887;" d="M678.9 797.4H217.4c-33.9 0-61.4-26.2-61.4-58.5v-715.7c0-32.2 27.5-58.5 61.4-58.5h584.4c33.9 0 61.4 26.2 61.4 58.5V591.5L678.9 797.4z m103-204.8H658.4v138l123.5-138z m8.1-564.8H230.4c-5.7 0-10.1 3.8-10.1 7.2V727.9c0 3.4 4.3 7.2 10.1 7.2h380.3v-151c0-27.8 22.6-50.3 50.3-50.3h139V35c0-3.4-4.3-7.2-10-7.2z m-0.2 0M557 544c0-17.7-14.3-32-32-32H352c-17.7 0-32 14.3-32 32s14.3 32 32 32h173c17.6 0 32-14.3 32-32zM707.5 385c0-17.7-14.3-32-32-32h-321c-17.7 0-32 14.3-32 32s14.3 32 32 32h321c17.6 0 32-14.3 32-32zM707.5 226c0-17.7-14.3-32-32-32h-321c-17.7 0-32 14.3-32 32s14.3 32 32 32h321c17.6 0 32-14.4 32-32z"  horiz-adv-x="1024" />

    
    <glyph glyph-name="tag" unicode="&#58888;" d="M247.164 587.719c-33.742 0-61.116-27.385-61.116-61.116 0-33.761 27.374-61.156 61.116-61.156 33.76 0 61.116 27.395 61.116 61.156 0 33.731-27.355 61.116-61.116 61.116m0-81.488c-11.26 0-20.372 9.102-20.372 20.372 0 11.24 9.111 20.372 20.372 20.372s20.372-9.132 20.372-20.372c0-11.27-9.112-20.372-20.372-20.372m244.464-244.463c5.63 0 10.723 2.248 14.403 5.989l40.744 40.743a20.125 20.125 0 0 1 5.967 14.345c0 11.28-9.11 20.411-20.37 20.411-5.61 0-10.704-2.287-14.405-5.988l-40.743-40.744c-3.68-3.7-5.968-8.754-5.968-14.384-0.001-11.28 9.111-20.372 20.372-20.372m462.585 156.988L546.775 826.194a20.248 20.248 0 0 1-14.404 5.99H247.164c-33.742 0-61.116-27.386-61.116-61.117 0-11.271 9.11-20.372 20.37-20.372s20.373 9.102 20.373 20.372c0 11.24 9.111 20.372 20.372 20.372h276.773l387.067-387.107-46.712-46.692c-3.68-3.69-5.968-8.764-5.968-14.385 0-11.28 9.132-20.41 20.372-20.41 5.63 0 10.723 2.286 14.403 6.027l61.116 61.106a20.247 20.247 0 0 1 5.969 14.354c-0.001 5.659-2.29 10.733-5.97 14.424M389.768 200.652c0-11.28 9.111-20.372 20.372-20.372 5.63 0 10.723 2.248 14.403 5.989l20.372 20.372a20.127 20.127 0 0 1 5.969 14.344c0 11.28-9.112 20.411-20.372 20.411a20.245 20.245 0 0 1-14.404-5.988l-20.371-20.372c-3.681-3.702-5.97-8.793-5.97-14.384m34.776 503.311a20.247 20.247 0 0 1-14.403 5.989H124.932c-33.742 0-61.116-27.385-61.116-61.116v-285.208c0-5.63 2.287-10.723 5.968-14.393l407.44-407.43c3.7-3.74 8.793-5.988 14.402-5.988 5.63 0 10.724 2.248 14.404 5.989l325.952 325.95c3.7 3.66 5.968 8.754 5.968 14.384s-2.287 10.682-5.968 14.384l-407.44 407.44z m67.085-718.988L104.56 372.053V648.836c0 11.24 9.11 20.37 20.37 20.37h276.773L788.772 282.14 491.628-15.025z m0 113.817c5.63 0 10.723 2.248 14.403 5.989l81.487 81.488a20.231 20.231 0 0 1 5.97 14.384c0 11.26-9.112 20.332-20.373 20.332-5.63 0-10.723-2.248-14.403-5.948l-81.488-81.488c-3.68-3.7-5.968-8.753-5.968-14.424-0.001-11.24 9.111-20.333 20.372-20.333"  horiz-adv-x="1024" />

    
    <glyph glyph-name="time" unicode="&#58889;" d="M699.16 333.662H523.17V576.644c0 18.744-13.74 33.922-30.7 33.922-16.962 0-30.716-15.178-30.716-33.922v-270.477c0-0.59 0.014-1.175 0.04-1.759-0.025-0.485-0.04-0.973-0.04-1.463 0-8.286 3.632-15.797 9.527-21.32 5.512-5.807 12.971-9.38 21.19-9.38 0.486 0 0.97 0.015 1.45 0.04 0.582-0.026 1.166-0.04 1.754-0.04H699.16c18.745 0 33.922 13.74 33.922 30.699s-15.177 30.718-33.921 30.718zM512 840.56c-249.753 0-452.205-202.45-452.205-452.205S262.247-63.85 512-63.85c249.738 0 452.205 202.45 452.205 452.205S761.738 840.56 512 840.56z m0-837.417c-212.741 0-385.212 172.47-385.212 385.212 0 212.758 172.47 385.213 385.212 385.213s385.212-172.455 385.212-385.213c0-212.741-172.472-385.212-385.212-385.212z"  horiz-adv-x="1024" />

    
    <glyph glyph-name="search" unicode="&#58890;" d="M1010.255-39.96l-0.028 0.028v-0.029h0.028c9.13-10.666 13.71-22.47 13.71-35.412 0-14.478-5.148-26.85-15.445-37.147a50.686 50.686 0 0 0-37.175-15.445 55.596 55.596 0 0 0-17.72 2.873 47.216 47.216 0 0 0-15.445 8.533l-5.718 4.58-282.529 284.548c-67.837-48.013-143.725-71.99-227.604-71.99-8.391 0-16.953 0.37-25.713 1.109a277.608 277.608 0 0 0-25.742 3.441 368.059 368.059 0 0 0-162.44 59.447c-53.36 34.274-96.054 79.585-128.081 135.988a370.903 370.903 0 0 0-36.038 83.425 408.391 408.391 0 0 0-16.014 90.28 387.173 387.173 0 0 0 5.149 91.417 377.331 377.331 0 0 0 50.344 137.723 380.375 380.375 0 0 0 98.358 109.138c33.563 26.68 71.109 47.244 112.665 61.722A384.926 384.926 0 0 0 422.329 896c18.317 0 35.838-1.138 52.649-3.442 44.969-6.087 88.032-19.796 129.218-41.129a381.484 381.484 0 0 0 107.545-82.287c35.81-37.346 63.06-81.519 81.747-132.575 18.687-51.056 26.907-102.852 24.603-155.415-3.043-87.634-33.165-166.48-90.365-236.564l283.639-284.549h-1.11z m-251.64 522.25a320.558 320.558 0 0 1-22.868 137.126 323.573 323.573 0 0 1-40.048 75.432c-16.782 23.608-36.408 44.741-58.878 63.429a338.477 338.477 0 0 1-72.616 46.306A332.277 332.277 0 0 1 385.779 833.14a52.62 52.62 0 0 1-10.297-1.138l-6.883-1.138a324.568 324.568 0 0 1-135.533-54.27 323.26 323.26 0 0 1-98.927-106.862c-28.187-46.448-43.632-98.272-46.334-155.415-2.674-57.143 7.794-110.105 31.458-158.857a319.99 319.99 0 0 1 86.326-114.286 330.57 330.57 0 0 1 126.375-67.44c48.809-13.709 97.988-16.383 147.536-7.992a332.618 332.618 0 0 1 75.517 22.84 345.816 345.816 0 0 1 68.037 39.423 346.356 346.356 0 0 1 57.2 53.73c17.152 20.195 31.459 42.096 42.893 65.704v-0.028a328.152 328.152 0 0 1 35.469 134.879z"  horiz-adv-x="1024" />

    
    <glyph glyph-name="top" unicode="&#58891;" d="M904 204c0-8.189-3.124-16.379-9.372-22.628-12.497-12.496-32.759-12.496-45.256 0L512 518.745 174.628 181.372c-12.497-12.496-32.758-12.496-45.255 0-12.497 12.498-12.497 32.758 0 45.256l360 360c12.497 12.496 32.758 12.496 45.255 0l360-360C900.876 220.379 904 212.189 904 204z"  horiz-adv-x="1024" />

    
    <glyph glyph-name="user" unicode="&#58892;" d="M691.2 326.4c81.067 55.467 134.4 149.333 134.4 256C825.6 755.2 684.8 896 512 896S200.533 755.2 200.533 584.533c0-106.666 53.334-200.533 134.4-256C151.467 256 23.467 78.933 23.467-128h87.466c0 204.8 155.734 375.467 354.134 398.933 2.133 0 55.466 4.267 100.266 0h4.267c194.133-27.733 343.467-194.133 343.467-396.8h89.6C1000.533 78.933 872.533 256 691.2 326.4zM512 349.867c-130.133 0-234.667 104.533-234.667 234.666C277.333 714.667 381.867 819.2 512 819.2c130.133 0 234.667-104.533 234.667-234.667 0-130.133-104.534-234.666-234.667-234.666z"  horiz-adv-x="1024" />

    
    <glyph glyph-name="view" unicode="&#58893;" d="M511.998 175.488c152.428 0 359.182 155.773 373.55 198.595-5.607 46.914-200.198 216.57-373.55 216.57-164.905 0-373.65-135.134-373.67-217.605 4.34-40.627 204.655-197.56 373.67-197.56m0-41.535c-173.163 0-415.166 162.973-415.166 238.74 0 120.066 243.452 259.501 415.166 259.501 187.905 0 415.17-182.613 415.17-259.5 0-63.976-248.398-238.74-415.17-238.74z m0 0M511.998 279.28c57.209 0 103.795 46.586 103.795 103.794s-46.586 103.79-103.795 103.79-103.79-46.58-103.79-103.79 46.58-103.795 103.79-103.795m0-41.536c-80.272 0-145.33 65.06-145.33 145.331 0 80.272 65.058 145.33 145.33 145.33 80.276 0 145.33-65.058 145.33-145.33 0-80.271-65.054-145.33-145.33-145.33z m0 0"  horiz-adv-x="1024" />

    
    <glyph glyph-name="weixin" unicode="&#58894;" d="M329.64 586.014c0-32.362-26.23-58.591-58.534-58.591-32.362 0-58.591 26.228-58.591 58.59 0 32.305 26.228 58.534 58.591 58.534 32.305 0.001 58.534-26.228 58.534-58.533z m-58.534 29.91c-16.531 0-29.91-13.436-29.91-29.968 0-16.474 13.379-29.85 29.91-29.85 16.473 0 29.91 13.377 29.91 29.85 0 16.532-13.437 29.967-29.91 29.967z m295.293-29.91c0-32.362-26.228-58.591-58.533-58.591-32.362 0-58.591 26.228-58.591 58.59 0 32.305 26.228 58.534 58.591 58.534 32.306 0.001 58.533-26.228 58.533-58.533z m-58.533 29.91c-16.531 0-29.91-13.436-29.91-29.968 0-16.474 13.379-29.85 29.91-29.85 16.475 0 29.91 13.377 29.91 29.85 0 16.532-13.435 29.967-29.91 29.967z m153.869-249.205c0-32.36-26.228-58.591-58.532-58.591-32.363 0-58.59 26.23-58.59 58.591 0 32.305 26.226 58.534 58.59 58.534 32.304 0 58.532-26.228 58.532-58.534z m-58.533 29.91c-16.532 0-29.91-13.435-29.91-29.968 0-16.473 13.377-29.85 29.91-29.85 16.474 0 29.91 13.377 29.91 29.85-0.001 16.533-13.436 29.968-29.91 29.968z m242.896-29.91c0-32.36-26.23-58.591-58.534-58.591-32.36 0-58.59 26.23-58.59 58.591 0 32.305 26.228 58.534 58.59 58.534 32.303 0 58.534-26.228 58.534-58.534z m-58.535 29.91c-16.533 0-29.91-13.435-29.91-29.968 0-16.473 13.376-29.85 29.91-29.85 16.473 0 29.91 13.377 29.91 29.85 0 16.533-13.437 29.968-29.91 29.968zM362.06 786.79c320.587 5.607 376.667-238.339 376.667-238.339 205.624-39.255 254.41-181.761 254.226-273.649-0.197-99.349-113.093-183.399-113.093-183.399l30.845-110.289-123.172 65.427s-236.671-83.185-372.198 137.393c0 0-101.585-2.803-144.259 14.02L122.79 125.99l41.125 125.243C-88.445 411.992 41.472 781.183 362.06 786.791zM706.95 551.256s-71.034 235.622-377.31 201.887C173.025 735.88 56.982 596.646 63.642 479.287c6.776-119.432 74.1-171.158 137.657-216.84l-27.104-77.577 90.662 45.8s101.878-22.432 132.72-16.824c-15.888 48.602-35.516 338.345 309.373 337.41z m154.217-507.519l-15.072 59.818c134.709 102.813 149.662 200.95 59.935 326.195-89.728 125.244-428.073 141.89-478.224-107.486-42.646-208.152 233.929-300.085 367-242.074l66.36-36.453z"  horiz-adv-x="1024" />

    
    <glyph glyph-name="weibo" unicode="&#58895;" d="M726.64 425.22c-34.78 6.72-17.845 25.088-17.845 25.088s34.023 55.406-6.805 95.73c-50.5 49.878-173.429-6.276-173.429-6.276-46.877-14.333-34.478 6.572-27.824 42.116 0 41.965-14.518 112.899-139.563 71.084-124.894-42.263-232.1-189.958-232.1-189.958-74.54-98.118-64.713-173.983-64.713-173.983 18.596-167.562 198.984-213.557 339.303-224.462C551.24 53.21 750.53 114.741 810.857 241.381c60.486 126.791-49.29 176.97-84.217 183.838zM414.55 111.751c-146.518-6.718-265.061 65.71-265.061 162.184 0 96.624 118.543 173.984 265.061 180.706 146.669 6.718 265.364-53.018 265.364-149.342 0-96.327-118.695-186.976-265.364-193.548zM385.367 391.17c-147.425-17.023-130.338-153.224-130.338-153.224s-1.51-43.16 39.467-65.114c86.183-46.145 175.093-18.216 219.849 38.98 44.907 57.047 18.6 196.235-128.978 179.358zM348.17 199.862c-27.516-3.135-49.743 12.547-49.743 35.248 0 22.55 19.654 46.296 47.173 49.13 31.604 2.99 52.167-14.934 52.167-37.782 0.151-22.55-22.228-43.46-49.597-46.596z m86.946 73.03c-9.377-6.87-20.866-5.975-25.707 2.388-5.141 8.067-3.175 20.91 6.2 27.628 10.886 8.067 22.228 5.674 27.217-2.388 4.841-8.067 1.36-20.458-7.71-27.628zM798.459 484.21c11.946 0 21.927 8.66 23.74 20.008 0.153 0.897 0.3 1.645 0.3 2.542 17.997 159.646-132.605 132.165-132.605 132.165-13.306 0-24.04-10.6-24.04-24.042 0-13.144 10.734-23.748 24.04-23.748 108.112 23.598 84.375-83.18 84.375-83.18-0.152-13.144 10.733-23.745 24.19-23.745z m-17.54 278.671c-52.013 12.096-105.693 1.64-120.662-1.195-1.21-0.15-2.266-1.198-3.323-1.344-0.457-0.151-0.908-0.597-0.908-0.597-14.818-4.185-25.555-17.624-25.555-33.603 0-18.968 15.573-34.646 35.078-34.646 0 0 18.9 2.538 31.756 7.466 12.699 5.076 120.657 3.732 174.185-84.976 29.186-64.813 12.856-108.123 10.737-115.141 0 0-6.954-16.877-6.954-33.452 0-19.115 15.574-31.215 35.078-31.215 16.18 0 29.786 2.243 33.718 29.273h0.152c57.761 189.215-70.16 278.072-163.302 299.43z m0 0"  horiz-adv-x="1024" />

    
    <glyph glyph-name="cloud" unicode="&#58896;" d="M739.333 107.326H284.667C182.841 107.326 100 190.167 100 291.993c0 101.826 82.841 184.667 184.667 184.667 6.732 0 13.452-0.376 20.139-1.126 9.245 109.143 101.033 195.14 212.527 195.14 111.199 0 202.797-85.539 212.451-194.271a178.25 178.25 0 0 0 9.549 0.257C841.159 476.66 924 393.819 924 291.993c0-101.826-82.841-184.667-184.667-184.667zM284.667 412.66C218.131 412.66 164 358.529 164 291.993s54.131-120.667 120.667-120.667h454.666c66.536 0 120.667 54.131 120.667 120.667S805.869 412.66 739.333 412.66c-10.869 0-21.95-1.578-32.938-4.689a32.003 32.003 0 0 0-40.555 34.039c0.521 5.094 0.784 10.266 0.784 15.372 0 82.32-66.972 149.292-149.292 149.292-82.32 0-149.292-66.972-149.292-149.292 0-5.497 0.405-11.35 1.275-18.419a32 32 0 0 0-42.862-33.919c-13.664 5.054-27.723 7.616-41.786 7.616z"  horiz-adv-x="1024" />

    
    <glyph glyph-name="earth" unicode="&#58897;" d="M1023.969 383.903c0 282.258-228.985 511.074-511.453 511.074C230.043 894.977 1.053 666.16 1.053 383.903c0-260.738 195.391-475.854 447.837-507.156 14.232-3 31.565-4.747 52.21-4.747 5.796 0 11.385 0.305 16.782 0.857 279.996 2.878 506.087 230.568 506.087 511.046z m-73.133-7.231c-1.471 25.5-4.84 50.46-9.97 74.718 0.456 8.662 0.58 16.868 0.348 24.497 6.343-29.66 9.688-60.432 9.688-91.984a435.95 435.95 0 0 0-0.066-7.231z m-876.715 7.23c0 30.978 3.225 61.201 9.345 90.362 18.932-20.248 63.554-19.77 74.436 10.483 19.471-11.605 45.637-13.718 45.637-36.913 0-76.55 2.726-158.618 72.28-159.886 1.958-0.026 38.788-13.958 56.316-59.416 6.06-15.712 30.033 0 56.322 0 13.124 0 0-22.11 0-69.922 0-47.626 102.68-120.96 102.68-120.96-0.475-31.525 0.82-57.017 3.443-77.383-23.177 0.427-42.71-2.645-58.055-7.868C230.627-11.645 74.12 167.857 74.12 383.903z m546.32-424.686c-2.273 11.127-12.215 17.22-30.356 12.452 14.474 61.64 21.511 96.17 51.728 122.387 43.72 37.899 5.206 80.044-28.063 75.077-26.222-3.959-9.651 32.467-33.056 34.482-23.404 1.958-53.97 48.512-87.653 64.53-17.855 8.48-35.403 31.204-62.94 32.222-24.407 0.946-60.076-20.638-60.076-4 0 53.591-5.427 91.832-6.542 107.104-0.9 12.27-8.02 4.133 24.974 3.34 17.957-0.481 9.186 36.068 26.96 37.495 17.456 1.382 59.052-16.34 69.65-9.277 9.846 6.577 72.371-164.127 72.371-28.217 0 16.126-8.351 44.164 0 59.437 33.03 60.352 63.952 109.539 61.175 116.734-1.575 4.051-33.792 7.396-59.57-1.253-8.699-2.905 2.768-16.53-9.727-19.44-46.814-10.808-88.175 12.622-73.691 34.645 14.831 22.57 68.57 9.846 73.282 55.125 2.71 25.936 4.956 55.974 6.46 78.299 63.004-9.853 56.068 81.767-37.614 91.574 189.526-2.217 350.129-124.616 409.063-294.487-2.98 2.719-6.449 4.371-10.454 4.775-28.324 70.75-97.074 19.548-73.752-42.855-124.96-96.058-92.973-163.053-51.918-201.417 21.603-20.167 42.2-50.497 55.61-72.28-14.596-42.56 53.782-25.518 87.504 46.71-42.895-148.763-162.557-265.011-313.365-303.162z"  horiz-adv-x="1024" />

    
    <glyph glyph-name="collect" unicode="&#58898;" d="M902.211 485.642a31.766 31.766 0 0 1-25.644 21.62L644.34 541.006 540.485 751.439a31.765 31.765 0 0 1-56.971 0L379.659 541.005l-232.227-33.744a31.768 31.768 0 0 1-17.606-54.183l168.042-163.8-39.669-231.288a31.765 31.765 0 0 1 46.091-33.487L512 133.702l207.71-109.199c6.915-3.65 22.854-4.496 33.454 2.418 10.086 6.579 14.681 19.151 12.637 31.069l-39.669 231.288 168.041 163.8a31.765 31.765 0 0 1 8.038 32.564zM669.827 323.115a31.766 31.766 0 0 1-9.136-28.117l31.611-184.31-165.521 87.02a31.746 31.746 0 0 1-14.782 3.648 31.755 31.755 0 0 1-14.782-3.648l-165.521-87.02 31.611 184.31a31.766 31.766 0 0 1-9.135 28.117l-133.91 130.53 185.058 26.89a31.765 31.765 0 0 1 23.918 17.377L512 665.604l82.761-167.691a31.765 31.765 0 0 1 23.917-17.377l185.059-26.89-133.91-130.531z"  horiz-adv-x="1024" />

    
    <glyph glyph-name="pengyou" unicode="&#58899;" d="M348.836 251.986L83.702 517.104C70.914 475.46 64.018 431.23 64.018 385.379c0-50.644 8.408-99.311 23.881-144.703h270.918c-3.429 3.667-6.791 7.423-9.981 11.31zM936.77 530.076H665.855a218.217 218.217 0 0 0 9.98-11.332l265.11-265.116c12.796 41.662 19.69 85.873 19.69 131.751-0.001 50.637-8.388 99.31-23.863 144.697zM907.916 596.487C863.694 679.085 794.46 746.232 710.218 787.71L518.996 596.487h388.92zM116.791 174.254c43.99-82.27 112.869-149.177 196.644-190.73l190.71 190.73H116.792zM722.868 370.31v-380.837c82.537 44.01 149.683 113.044 191.308 196.99L723.243 377.386c-0.083-2.374-0.228-4.747-0.375-7.076zM512.332 833.68c-50.647 0-99.312-8.405-144.697-23.86V539.05L642.93 814.321c-41.315 12.594-85.167 19.36-130.597 19.36zM380.607-43.232c41.635-12.807 85.873-19.699 131.725-19.699 50.435 0 98.87 8.303 144.108 23.65V231.297a213.358 213.358 0 0 0-10.719-9.431l-265.114-265.1zM301.232 780.936c-82.278-44.018-149.212-112.887-190.73-196.661l190.73-190.72V780.936z"  horiz-adv-x="1024" />

    
    <glyph glyph-name="zan" unicode="&#58900;" d="M1024.559 397.212c0.379-4.717 0.025-9.567-1.254-14.401L931.061-24.35c-1.295-4.876-3.43-9.305-6.137-13.242-9.879-19.727-24.902-37.173-44.875-49.875-21.041-13.375-44.541-19.618-67.752-19.576v0.256l-592.522 0.247c-2.071-0.307-4.168-0.515-6.327-0.515-2.165 0-4.271 0.208-6.356 0.524l-157.605 0.065c-2.215-0.355-4.47-0.59-6.788-0.59C19.119-107.056 0.01-87.944 0.01-64.37l0.387 512.489c0 23.58 19.118 42.688 42.698 42.688 1.761 0 3.488-0.136 5.198-0.352l141.671 0.331v0.805c130.35 9.331 233.638 116.19 237.323 248.024-0.328 3.71-0.563 7.438-0.563 11.233 0 68.586 55.596 124.191 124.192 124.191 58.941 0 108.18-41.102 120.9-96.173l0.627 0.082c6.992-31.441 10.803-64.079 10.803-97.619 0-51.715-8.83-101.353-24.984-147.544l238.277-0.257c2.191 0 4.334-0.219 6.443-0.542 40.684-1.598 79.869-22.548 102.949-59.75 14.683-23.659 20.54-50.243 18.628-76.024M85.427-21.107l85.37-0.036 0.322 426.51-85.29-0.19-0.402-426.284z m848.45 449.738c-8.207 13.231-22.701 20.186-37.229 19.402v0.127h-0.107l-301.186 0.314c-23.572 0-42.688 19.118-42.688 42.695 0 6.787 1.631 13.186 4.451 18.883l-0.453 0.374c17.053 31.748 29.459 66.356 36.492 102.865l0.535-0.014s5.676 23.051 5.604 67.264c-0.061 35.024-6.443 66.999-6.443 66.999h-0.322c0.029 0.621 0.096 1.228 0.096 1.857 0 22.042-17.875 39.916-39.916 39.916-22.053 0-39.928-17.874-39.928-39.916 0-0.921 0.082-1.83 0.139-2.736l-0.556-0.008s0.679-33.328-5.974-67.893c-2.825-14.663-6.795-28.337-10.41-39.168-0.073 0.035-0.137 0.064-0.21 0.1-35.93-109.848-126.277-194.998-239.189-223.682l-0.41-437.186 556.325-0.227c1.881 0 3.717-0.16 5.529-0.407a39.648 39.648 0 0 1 16.076 5.861c7.152 4.544 12.344 10.99 15.387 18.263l0.109-0.061 88.814 392.011-0.344 0.103c3.552 11.087 2.425 23.595-4.192 34.264"  horiz-adv-x="1025" />

    
    <glyph glyph-name="android" unicode="&#58901;" d="M789.333 618.667c-8.533 0-14.933-2.134-21.333-4.267v4.267h-2.133c-8.534 66.133-53.334 123.733-115.2 157.866L680.533 819.2c0 4.267 2.134 8.533 2.134 12.8 0 12.8-8.534 21.333-21.334 21.333-6.4 0-12.8-4.266-17.066-10.666L610.133 793.6c-29.866 10.667-64 17.067-98.133 17.067s-68.267-6.4-98.133-17.067l-34.134 49.067c-4.266 6.4-10.666 10.666-17.066 10.666-12.8 0-21.334-8.533-21.334-21.333 0-4.267 2.134-8.533 4.267-10.667l29.867-42.666c-64-34.134-108.8-91.734-115.2-157.867H256v-4.267c-6.4 2.134-12.8 4.267-21.333 4.267-36.267 0-64-27.733-64-64v-298.667c0-36.266 27.733-64 64-64 8.533 0 14.933 2.134 21.333 4.267V128c0-23.467 19.2-42.667 42.667-42.667h42.666v-106.666c0-36.267 27.734-64 64-64s64 27.733 64 64V85.333h85.334v-106.666c0-36.267 27.733-64 64-64s64 27.733 64 64V85.333h42.666C748.8 85.333 768 104.533 768 128v68.267c6.4-2.134 12.8-4.267 21.333-4.267 36.267 0 64 27.733 64 64V554.667c0 36.266-27.733 64-64 64zM256 256c0-12.8-8.533-21.333-21.333-21.333S213.333 243.2 213.333 256V554.667c0 12.8 8.534 21.333 21.334 21.333S256 567.467 256 554.667V256z m256 512c108.8 0 198.4-66.133 211.2-149.333H300.8C313.6 701.867 403.2 768 512 768z m-85.333-789.333c0-12.8-8.534-21.334-21.334-21.334S384-34.133 384-21.333V85.333h42.667v-106.666z m213.333 0c0-12.8-8.533-21.334-21.333-21.334s-21.334 8.534-21.334 21.334V85.333H640v-106.666zM725.333 128H298.667V576h426.666v-448z m85.334 128c0-12.8-8.534-21.333-21.334-21.333S768 243.2 768 256V554.667c0 12.8 8.533 21.333 21.333 21.333s21.334-8.533 21.334-21.333V256zM576 704c-12.8 0-21.333-8.533-21.333-21.333 0-12.8 8.533-21.334 21.333-21.334s21.333 8.534 21.333 21.334c0 12.8-8.533 21.333-21.333 21.333z m-128 0c-12.8 0-21.333-8.533-21.333-21.333 0-12.8 8.533-21.334 21.333-21.334s21.333 8.534 21.333 21.334c0 12.8-8.533 21.333-21.333 21.333z"  horiz-adv-x="1024" />

    
    <glyph glyph-name="heart" unicode="&#58902;" d="M21.333 896v-1024V896zM42.667 896v-1024V896zM64 896v-1024V896zM85.333 896v-1024V896zM106.667 896v-1024V896zM128 896v-1024V896zM149.333 896v-1024V896zM170.667 896v-1024V896zM192 896v-1024V896zM213.333 896v-1024V896zM234.667 896v-1024V896zM256 896v-1024V896zM277.333 896v-1024V896zM298.667 896v-1024V896zM320 896v-1024V896zM341.333 896v-1024V896zM362.667 896v-1024V896zM384 896v-1024V896zM405.333 896v-1024V896zM426.667 896v-1024V896zM448 896v-1024V896zM469.333 896v-1024V896zM490.667 896v-1024V896zM512 896v-1024V896zM533.333 896v-1024V896zM554.667 896v-1024V896zM576 896v-1024V896zM597.333 896v-1024V896zM618.667 896v-1024V896zM640 896v-1024V896zM661.333 896v-1024V896zM682.667 896v-1024V896zM704 896v-1024V896zM725.333 896v-1024V896zM746.667 896v-1024V896zM768 896v-1024V896zM789.333 896v-1024V896zM810.667 896v-1024V896zM832 896v-1024V896zM853.333 896v-1024V896zM874.667 896v-1024V896zM896 896v-1024V896zM917.333 896v-1024V896zM938.667 896v-1024V896zM960 896v-1024V896zM981.333 896v-1024V896zM1002.667 896v-1024V896zM0 874.667h1024H0zM0 853.333h1024H0zM0 832h1024H0zM0 810.667h1024H0zM0 789.333h1024H0zM0 768h1024H0zM0 746.667h1024H0zM0 725.333h1024H0zM0 704h1024H0zM0 682.667h1024H0zM0 661.333h1024H0zM0 640h1024H0zM0 618.667h1024H0zM0 597.333h1024H0zM0 576h1024H0zM0 554.667h1024H0zM0 533.333h1024H0zM0 512h1024H0zM0 490.667h1024H0zM0 469.333h1024H0zM0 448h1024H0zM0 426.667h1024H0zM0 405.333h1024H0zM0 384h1024H0zM0 362.667h1024H0zM0 341.333h1024H0zM0 320h1024H0zM0 298.667h1024H0zM0 277.333h1024H0zM0 256h1024H0zM0 234.667h1024H0zM0 213.333h1024H0zM0 192h1024H0zM0 170.667h1024H0zM0 149.333h1024H0zM0 128h1024H0zM0 106.667h1024H0zM0 85.333h1024H0zM0 64h1024H0zM0 42.667h1024H0zM0 21.333h1024H0zM0 0h1024H0zM0-21.333h1024H0zM0-42.667h1024H0zM0-64h1024H0zM0-85.333h1024H0zM0-106.667h1024H0zM753.333 810.667q69.667 0 128.5-34.334T975 683.167t34.333-128.5q0-50-19.166-97.167t-55.834-83.833L512-48.667 89.667 373.667Q53 410.333 33.833 457.5t-19.166 97.167q0 69.666 34.333 128.5t93.167 93.166 128.5 34.334q50.333 0 97.166-19t83.834-56L512 675.333l60.333 60.334Q609 772.333 656.167 791.5t97.166 19.167z m0-85.334q-33.333 0-64.666-12.666t-56-37.334L512 554.667 391.333 675.333q-24.666 24.667-56 37.334t-64.666 12.666q-46.667 0-85.834-22.833t-62-62T100 554.667q0-33.334 12.667-64.667T150 434l362-362 362 362q24.667 24.667 37.333 56T924 554.667q0 46.666-22.833 85.833t-62 62-85.834 22.833z"  horiz-adv-x="1024" />

    
    <glyph glyph-name="close" unicode="&#58903;" d="M595.549 383.5l344.35 344.347c23.211 23.212 23.211 60.84 0 84.053-23.212 23.208-60.841 23.208-84.05 0L511.5 467.55 171.802 807.247c-22.932 22.935-60.116 22.935-83.048 0-22.935-22.933-22.935-60.117 0-83.05L428.45 384.5 84.101 40.151c-23.211-23.21-23.211-60.84 0-84.049 23.212-23.211 60.841-23.211 84.05 0l344.35 344.35 338.822-338.823c22.933-22.935 60.116-22.935 83.048 0 22.935 22.933 22.935 60.117 0 83.048L595.549 383.5z"  horiz-adv-x="1024" />

    
    <glyph glyph-name="link" unicode="&#58904;" d="M810.56 581.12l-112-193.984c-17.696-30.592-56.8-41.088-87.424-23.392l-27.68 16 32 55.392c15.296-8.8 34.88-3.584 43.68 11.712l80 138.56c8.832 15.328 3.584 34.88-11.68 43.712l-110.88 64c-15.328 8.832-34.88 3.584-43.68-11.712l-80-138.56c-8.864-15.328-3.616-34.88 11.68-43.712l-32-55.392-27.68 16c-30.624 17.664-41.12 56.8-23.424 87.392l112 193.984c17.696 30.624 56.8 41.088 87.424 23.424l166.24-96c30.624-17.664 41.12-56.8 23.424-87.424zM432 245.44c-15.328 8.832-20.576 28.416-11.712 43.712l128 221.696c8.832 15.328 28.416 20.576 43.712 11.712s20.576-28.416 11.68-43.712l-128-221.696c-8.8-15.296-28.352-20.512-43.68-11.712z m-23.424 87.392c-15.328 8.832-34.88 3.584-43.712-11.68l-80-138.56c-8.832-15.328-3.584-34.88 11.712-43.712l110.88-64c15.296-8.832 34.88-3.584 43.68 11.712l80 138.56c8.832 15.296 3.584 34.88-11.68 43.712l32 55.392 27.68-16c30.624-17.664 41.12-56.768 23.424-87.392l-112-193.984c-17.696-30.624-56.8-41.088-87.424-23.424l-166.272 96c-30.624 17.696-41.12 56.8-23.424 87.424l112 193.984c17.696 30.624 56.832 41.12 87.456 23.424l27.68-16-32-55.456z"  horiz-adv-x="1024" />

    
    <glyph glyph-name="feed" unicode="&#58905;" d="M1024-128H921.6C921.6 381 509 793.6 0 793.6V896c565.5 0 1024-458.5 1024-1024zM153.6 179.2C68.8 179.2 0 110.4 0 25.6S68.8-128 153.6-128s153.6 68.8 153.6 153.6-68.8 153.6-153.6 153.6zM0 537.6v-102.4c311 0 563.2-252.2 563.2-563.2h102.4c0 367.6-298 665.6-665.6 665.6z"  horiz-adv-x="1024" />

    
    <glyph glyph-name="guanyu1" unicode="&#58880;" d="M500.623 447.717c-13.817 0-25.031-11.214-25.031-25.031v-300.374c0.2-13.671 11.329-24.677 25.029-24.677s24.829 11.006 25.028 24.658l0 300.393c0 0 0 0 0 0 0 13.823-11.204 25.028-25.026 25.031zM500.623 873.247c-276.494 0-500.623-224.129-500.623-500.623s224.129-500.628 500.623-500.628c276.489 0 500.623 224.134 500.623 500.628s-224.134 500.623-500.623 500.623zM500.623-77.938c-248.86 0-450.561 201.701-450.561 450.561 0 248.855 201.701 450.561 450.561 450.561 248.865 0 450.561-201.701 450.561-450.561s-201.696-450.561-450.561-450.561zM500.623 647.966c-27.634 0-50.062-22.428-50.062-50.062 0-27.639 22.428-50.062 50.062-50.062s50.062 22.423 50.062 50.062c0 27.634-22.428 50.062-50.062 50.062z"  horiz-adv-x="1024" />

    
    <glyph glyph-name="miaoshu" unicode="&#58960;" d="M895.591445 498.800629c-11.30344 0-20.466124-9.162684-20.466124-20.466124v-451.41004c0-1.952468-1.820462-3.541663-4.059456-3.541663H123.613342c-2.238994 0-4.059456 1.589195-4.059456 3.541663V714.117556c0 1.952468 1.821485 3.541663 4.059456 3.541663h514.046613c11.30344 0 20.466124 9.163707 20.466124 20.466124s-9.162684 20.466124-20.466124 20.466124H123.613342c-24.809035 0-44.991704-19.951401-44.991703-44.473911v-687.193091c0-24.523533 20.183691-44.473911 44.991703-44.47391h747.452523c24.808012 0 44.991704 19.950378 44.991704 44.47391V478.334505c0 11.30344-9.162684 20.466124-20.466124 20.466124zM930.900625 726.314343l-54.261834 54.260811c-8.43102 8.43102-19.774369 13.074783-31.942503 13.074783-12.772908 0-25.402553-5.302773-34.650171-14.55039l-34.233686-34.233686c-1.934049-1.934049-3.663436-3.990894-5.212722-6.134721l-0.169868 0.169869-435.288875-435.288874a20.453844 20.453844 0 0 1-6.097881-9.788947l-34.691104-124.972293a20.469194 20.469194 0 0 1 19.722181-25.940812c1.825578 0 3.665483 0.24457 5.472641 0.74599l124.972293 34.69008a20.444635 20.444635 0 0 1 10.571776 7.031137l0.075725-0.075724 444.842461 444.844507-0.080841 0.080841 29.495778 29.495778c18.767436 18.766412 19.428491 48.63979 1.47663 66.591651z m-491.882823-499.275188l-61.281715 61.281715 393.453047 393.453047a44.282552 44.282552 0 0 1 3.14769-3.499707l54.261834-54.260811a44.646849 44.646849 0 0 1 3.921309-3.471055l-393.502165-393.503189z m-95.54303-34.261314l15.625886 56.292074 40.665165-40.666189-56.291051-15.625885zM900.481825 688.664861l-34.233685-34.233685c-1.627057-1.62808-3.706415-2.561335-5.704932-2.560312-1.269923 0-2.279926 0.36532-3.000334 1.085727l-54.260811 54.260812c-1.710968 1.709945-1.524726 5.705955 1.474584 8.705265l34.232662 34.233686c1.62808 1.62808 3.708462 2.561335 5.706979 2.561335 1.269923 0 2.278903-0.36532 2.99931-1.085727l54.260812-54.260812c1.710968-1.709945 1.524726-5.705955-1.474585-8.706289z"  horiz-adv-x="1024" />

    
    <glyph glyph-name="yiguidang1" unicode="&#58911;" d="M516.5 827.322c-246.726 0-446.661-199.935-446.661-446.665 0-246.721 199.93-446.657 446.661-446.657 246.726 0 446.661 199.935 446.661 446.657 0 246.73-199.935 446.665-446.661 446.665v0 0zM516.5-23.462c-223.326 0-404.123 180.792-404.123 404.118 0 223.33 180.792 404.127 404.123 404.127 221.202 0 404.123-180.792 404.123-404.127 0-223.326-180.796-404.118-404.123-404.118zM775.019 234.645c0-24.833-20.105-44.978-44.951-44.978h-426.937c-24.809 0-44.917 20.145-44.917 44.978v120.212c-0.719 3.195 0.037 7.005 2.674 11.14l110.808 186.695c6.585 10.421 22.115 18.96 34.475 18.96h231.369c12.322 0 27.523-8.763 33.719-19.442l101.088-185.752c1.679-2.953 2.469-5.757 2.54-8.209h0.149v-123.605h-0.018zM294.408 255.338c0-11.711 9.461-21.142 21.138-21.142h402.125c11.693 0 21.159 9.448 21.159 21.142v83.799h-126.967v-42.333c0-11.693-9.484-21.159-21.159-21.159h-148.137c-11.695 0-21.177 9.466-21.177 21.159v42.333h-126.982v-83.799zM575.284 321.411v48.037h-117.204v-48.037c0-5.313 4.278-9.589 9.611-9.589h97.982c5.318 0 9.611 4.276 9.611 9.589zM648.018 518.049c-5.722 9.907-19.81 18.020-31.263 18.020h-190.975c-11.453 0-25.841-7.929-31.948-17.578l-84.722-148.913 416.827-0.114-77.919 148.586zM591.719 473.243h-131.352c-7.989 0-14.388 8.244-14.388 18.371 0 10.202 6.418 18.411 14.388 18.411h131.352c7.914 0 14.37-8.209 14.37-18.411 0.018-10.127-6.398-18.371-14.37-18.371zM635.828 403.201h-225.597c-7.987 0-14.388 8.244-14.388 18.371 0 10.206 6.42 18.411 14.388 18.411h225.597c7.911 0 14.365-8.205 14.365-18.411 0.022-10.127-6.42-18.371-14.365-18.371z"  horiz-adv-x="1026" />

    
    <glyph glyph-name="shouye1" unicode="&#58913;" d="M593.35795-50.624h-309.12A163.776 163.776 0 0 0 120.65395 113.024V359.168H25.48595a25.6 25.6 0 0 0-23.808 16.448 25.28 25.28 0 0 0 6.976 28.096L495.18195 834.176a25.408 25.408 0 0 0 33.792 0l486.592-430.464a25.472 25.472 0 1 0-16.96-44.544h-95.104v-246.144c0-56.64-28.608-108.352-76.48-138.496a25.536 25.536 0 1 0-27.2 43.136c33.024 20.736 52.672 56.384 52.672 95.36V384.576c0 14.144 11.456 25.536 25.472 25.536h53.376L512.07795 781.056 92.81395 410.176h53.312c14.08 0 25.472-11.456 25.472-25.536v-271.616c0-62.144 50.56-112.64 112.576-112.64h309.184a25.472 25.472 0 1 0 0-51.008zM592.78195-50.624a25.472 25.472 0 1 0 0 50.944 43.648 43.648 0 0 1 43.584 43.52V244.224a43.648 43.648 0 0 1-43.584 43.52H431.37395a43.648 43.648 0 0 1-43.584-43.52v-128.896a25.408 25.408 0 1 0-50.944 0V244.224a94.72 94.72 0 0 0 94.592 94.528h161.344a94.72 94.72 0 0 0 94.592-94.528V43.84a94.72 94.72 0 0 0-94.592-94.464z"  horiz-adv-x="1040" />

    
    </font>
</defs>
</svg>
